<?xml version="1.0" standalone="no"?><!DOCTYPE svg PUBLIC "-//W3C//DTD SVG 1.1//EN" "http://www.w3.org/Graphics/SVG/1.1/DTD/svg11.dtd" ><svg xmlns="http://www.w3.org/2000/svg"><metadata></metadata><defs><font id="fonteditor" horiz-adv-x="256"><font-face font-family="e¹kcQpN­~ÆÑ{OS" font-weight="400" font-stretch="normal" units-per-em="256" panose-1="2 0 0 0 0 0 0 0 0 0" ascent="221" descent="-59" x-height="0" bbox="4 -54 252 208" underline-thickness="0" underline-position="0" unicode-range="U+002a-9a8c" /><missing-glyph horiz-adv-x="256"  /><glyph glyph-name="asterisk" unicode="*" d="M107 157 L66 145 L93 108 L89 105 L61 142 L35 104 L31 107 L58 145 L16 157 L17 162 L59 150 L59 191 L64 191 L64 150 L105 162 L107 157 Z" /><glyph glyph-name="plus" unicode="+" d="M149 92 L149 87 L86 87 L86 24 L81 24 L81 87 L18 87 L18 92 L81 92 L81 155 L86 155 L86 92 L149 92 Z" /><glyph glyph-name="hyphen" unicode="-" d="M16 78 L84 78 L84 73 L16 73 L16 78 Z" /><glyph glyph-name="zero" unicode="0" d="M22 90 Q23 -1 82 -3 Q140 -2 141 90 Q139 180 82 184 Q25 179 22 90 ZM17 90 Q20 184 82 189 Q143 185 146 90 Q144 -5 82 -8 Q18 -5 17 90 Z" /><glyph glyph-name="one" unicode="1" d="M100 191 L105 191 L105 -6 L100 -6 L100 180 Q82 146 37 121 L35 125 Q84 152 100 191 Z" /><glyph glyph-name="two" unicode="2" d="M20 0 L139 0 L139 -5 L14 -5 L14 0 Q37 46 84 78 Q137 108 133 140 Q131 183 78 185 Q37 184 24 139 L20 140 Q33 189 78 190 Q135 188 137 140 Q140 105 87 74 Q43 45 20 0 Z" /><glyph glyph-name="three" unicode="3" d="M17 45 L22 45 Q31 -2 79 -3 Q135 -1 138 43 Q134 89 77 91 L61 91 L61 96 L77 96 Q129 98 132 141 Q127 181 79 185 Q37 184 27 140 L22 141 Q34 189 79 190 Q131 186 136 141 Q135 104 98 94 Q141 83 143 43 Q140 -6 79 -8 Q28 -6 17 45 Z" /><glyph glyph-name="four" unicode="4" d="M20 47 L117 47 L117 185 L20 47 ZM150 47 L150 42 L122 42 L122 -6 L117 -6 L117 42 L14 42 L14 47 L117 193 L122 193 L122 47 L150 47 Z" /><glyph glyph-name="five" unicode="5" d="M33 186 L135 186 L135 181 L37 181 L28 95 Q45 120 79 120 Q137 116 141 57 Q138 -4 77 -7 Q27 -5 16 44 L21 44 Q31 -1 77 -3 Q133 0 136 57 Q132 111 79 115 Q43 114 26 83 L22 84 L33 186 Z" /><glyph glyph-name="six" unicode="6" d="M85 115 Q30 113 26 52 Q35 -3 83 -3 Q139 0 142 57 Q138 111 85 115 ZM142 144 L137 143 Q124 183 86 184 Q25 181 23 86 Q23 79 23 72 Q37 119 85 120 Q142 116 147 57 Q144 -4 83 -7 Q32 -7 20 52 Q18 68 18 86 Q20 185 86 189 Q127 188 142 144 Z" /><glyph glyph-name="seven" unicode="7" d="M145 186 L145 181 Q80 88 59 -6 L54 -5 Q75 88 139 181 L17 181 L17 186 L145 186 Z" /><glyph glyph-name="eight" unicode="8" d="M83 -3 Q141 0 144 43 Q142 89 83 91 Q25 89 23 43 Q27 0 83 -3 ZM30 141 Q31 97 83 96 Q137 96 137 141 Q132 181 83 185 Q35 181 30 141 ZM105 94 Q148 83 149 43 Q145 -5 83 -8 Q23 -4 18 43 Q19 83 62 94 Q26 103 25 141 Q30 186 83 190 Q137 186 142 141 Q142 103 105 94 Z" /><glyph glyph-name="nine" unicode="9" d="M39 81 Q56 66 80 65 Q135 67 140 127 Q130 184 83 184 Q26 181 23 123 Q24 98 39 81 ZM22 35 L27 36 Q39 -1 78 -3 Q141 -2 142 95 Q142 102 142 108 Q128 61 80 60 Q53 60 36 78 Q18 95 18 123 Q22 185 83 189 Q134 188 145 128 Q147 113 147 95 Q146 -6 78 -7 Q36 -5 22 35 Z" /><glyph glyph-name="A" unicode="a" d="M50 65 L156 65 L103 183 L50 65 ZM189 -7 L158 60 L48 60 L18 -7 L13 -5 L101 189 L105 189 L193 -5 L189 -7 Z" /><glyph glyph-name="B" unicode="b" d="M34 91 L34 -1 L105 -1 Q170 -2 168 44 Q164 88 105 91 L34 91 ZM34 183 L34 96 L99 96 Q161 94 158 140 Q154 180 99 183 L34 183 ZM29 -6 L29 188 L99 188 Q159 185 163 140 Q164 101 127 94 Q171 83 173 44 Q175 -7 105 -6 L29 -6 Z" /><glyph glyph-name="C" unicode="c" d="M189 134 L185 133 Q163 183 108 185 Q33 177 26 90 Q29 2 108 -3 Q174 -4 189 55 L194 54 Q178 -9 108 -8 Q26 -1 22 90 Q28 182 108 189 Q168 187 189 134 Z" /><glyph glyph-name="D" unicode="d" d="M37 183 L37 -1 L82 -1 Q189 -5 185 90 Q185 183 82 183 L37 183 ZM32 -6 L32 188 L82 188 Q191 189 190 90 Q194 -10 82 -6 L32 -6 Z" /><glyph glyph-name="E" unicode="e" d="M37 -1 L170 -1 L170 -6 L32 -6 L32 188 L165 188 L165 183 L37 183 L37 95 L159 95 L159 90 L37 90 L37 -1 Z" /><glyph glyph-name="F" unicode="f" d="M163 183 L37 183 L37 95 L148 95 L148 90 L37 90 L37 -6 L32 -6 L32 188 L163 188 L163 183 Z" /><glyph glyph-name="G" unicode="g" d="M198 134 L193 133 Q172 183 111 185 Q35 177 28 90 Q32 3 114 -3 Q177 -3 193 36 L193 86 L118 86 L118 91 L198 91 L198 35 Q181 -8 114 -8 Q28 -1 24 90 Q31 181 111 189 Q175 187 198 134 Z" /><glyph glyph-name="H" unicode="h" d="M176 188 L180 188 L180 -6 L176 -6 L176 91 L36 91 L36 -6 L31 -6 L31 188 L36 188 L36 96 L176 96 L176 188 Z" /><glyph glyph-name="I" unicode="i" d="M27 188 L32 188 L32 -6 L27 -6 L27 188 Z" /><glyph glyph-name="J" unicode="j" d="M108 188 L113 188 L113 43 Q113 -7 66 -7 Q14 -8 11 47 L16 47 Q19 -4 66 -2 Q108 -3 108 43 L108 188 Z" /><glyph glyph-name="K" unicode="k" d="M185 -5 L181 -8 L90 102 L35 49 L35 -6 L30 -6 L30 188 L35 188 L35 55 L174 189 L178 185 L94 105 L185 -5 Z" /><glyph glyph-name="L" unicode="l" d="M28 188 L33 188 L33 -1 L154 -1 L154 -6 L28 -6 L28 188 Z" /><glyph glyph-name="M" unicode="m" d="M31 -6 L31 188 L40 188 L125 0 L209 188 L218 188 L218 -6 L213 -6 L212 183 L127 -5 L122 -5 L36 183 L36 -6 L31 -6 Z" /><glyph glyph-name="N" unicode="n" d="M30 -6 L30 188 L39 188 L175 -1 L175 188 L179 188 L179 -6 L171 -6 L35 183 L35 -6 L30 -6 Z" /><glyph glyph-name="O" unicode="o" d="M26 90 Q34 4 115 -3 Q196 4 204 90 Q196 177 115 185 Q34 177 26 90 ZM21 90 Q29 181 115 190 Q201 181 209 90 Q201 0 115 -7 Q29 0 21 90 Z" /><glyph glyph-name="P" unicode="p" d="M37 183 L37 77 L108 77 Q171 76 170 130 Q167 180 108 183 L37 183 ZM32 -6 L32 188 L108 188 Q171 184 175 130 Q176 71 108 72 L37 72 L37 -6 L32 -6 Z" /><glyph glyph-name="Q" unicode="q" d="M26 90 Q34 4 115 -3 Q196 4 204 90 Q196 177 115 185 Q34 177 26 90 ZM130 -6 L178 -50 L175 -54 L124 -7 Q120 -7 115 -7 Q29 0 21 90 Q29 181 115 190 Q201 181 209 90 Q204 10 130 -6 Z" /><glyph glyph-name="R" unicode="r" d="M38 88 L112 88 Q181 86 178 135 Q175 181 112 183 L38 183 L38 88 ZM193 -4 L189 -7 L113 83 L38 83 L38 -6 L33 -6 L33 187 L112 187 Q179 184 183 135 Q185 83 120 83 L193 -4 Z" /><glyph glyph-name="S" unicode="s" d="M171 142 L166 140 Q148 183 99 185 Q40 183 36 141 Q33 108 101 95 Q179 81 175 42 Q175 -8 102 -8 Q39 -8 23 49 L27 50 Q41 -3 102 -3 Q171 -3 170 42 Q174 77 100 90 Q28 104 31 141 Q36 188 99 190 Q151 188 171 142 Z" /><glyph glyph-name="T" unicode="t" d="M167 187 L167 182 L92 182 L92 -6 L87 -6 L87 182 L12 182 L12 187 L167 187 Z" /><glyph glyph-name="U" unicode="u" d="M31 188 L36 188 L36 85 Q35 -3 106 -1 Q178 -4 176 85 L176 188 L181 188 L181 85 Q183 -8 106 -6 Q30 -7 31 85 L31 188 Z" /><glyph glyph-name="V" unicode="v" d="M5 187 L10 189 L91 0 L173 189 L177 187 L94 -6 L89 -6 L5 187 Z" /><glyph glyph-name="W" unicode="w" d="M189 0 L247 189 L252 187 L191 -6 L187 -6 L128 179 L70 -6 L65 -6 L4 187 L9 189 L67 0 L126 188 L130 188 L189 0 Z" /><glyph glyph-name="X" unicode="x" d="M167 -4 L163 -7 L86 90 L9 -7 L5 -4 L83 94 L12 186 L15 189 L86 98 L156 189 L160 186 L89 94 L167 -4 Z" /><glyph glyph-name="Y" unicode="y" d="M177 187 L93 74 L93 -6 L88 -6 L88 74 L4 187 L8 190 L91 79 L174 190 L177 187 Z" /><glyph glyph-name="Z" unicode="z" d="M21 -1 L169 -1 L169 -6 L15 -6 L15 -1 L159 183 L25 183 L25 188 L165 188 L165 183 L21 -1 Z" /><glyph glyph-name="uni4E00" unicode="&#x4e00;" d="M10 98 L246 98 L246 93 L10 93 L10 98 Z" /><glyph glyph-name="uni4E03" unicode="&#x4e03;" d="M95 205 L100 205 L100 111 L245 130 L246 125 L100 106 L100 31 Q98 -9 144 -7 L174 -7 Q222 -9 221 22 Q222 35 224 52 L229 52 Q229 49 228 42 Q227 30 226 22 Q225 -14 174 -12 L144 -12 Q94 -13 95 31 L95 105 L12 95 L11 100 L95 110 L95 205 Z" /><glyph glyph-name="uni4E09" unicode="&#x4e09;" d="M15 0 L241 0 L241 -4 L15 -4 L15 0 ZM30 179 L226 179 L226 174 L30 174 L30 179 ZM40 94 L216 94 L216 89 L40 89 L40 94 Z" /><glyph glyph-name="uni4E1A" unicode="&#x4e1a;" d="M155 204 L160 204 L160 -2 L244 -2 L244 -7 L12 -7 L12 -2 L96 -2 L96 204 L101 204 L101 -2 L155 -2 L155 204 ZM186 58 Q192 71 210 109 Q225 140 229 148 L233 146 Q216 109 190 56 L186 58 ZM23 147 L28 149 L29 147 Q34 137 48 107 Q64 71 70 59 L65 57 Q55 80 24 145 L23 147 Z" /><glyph glyph-name="uni4E1C" unicode="&#x4e1c;" d="M14 166 L81 166 Q95 191 102 207 L106 205 Q102 196 92 177 Q89 170 87 166 L242 166 L242 161 L84 161 Q62 119 39 89 L135 89 L135 139 L140 139 L140 89 L231 89 L231 84 L140 84 L140 6 Q142 -23 109 -21 Q105 -21 96 -21 Q85 -20 80 -20 L80 -15 Q85 -15 96 -16 Q105 -16 109 -16 Q138 -18 135 6 L135 84 L34 84 L34 89 Q52 113 79 161 L14 161 L14 166 ZM11 -6 Q47 21 76 54 L79 51 Q53 19 14 -10 L11 -6 ZM177 51 L180 55 Q188 47 185 50 Q228 10 244 -3 L241 -6 Q206 24 177 51 Z" /><glyph glyph-name="uni4E3A" unicode="&#x4e3a;" d="M112 146 L115 205 L120 205 L117 146 Q117 144 116 142 Q116 140 116 139 L226 139 L222 22 Q222 -17 176 -15 Q145 -15 135 -14 L135 -9 Q145 -10 176 -10 Q218 -12 217 22 L220 134 L116 134 Q112 39 20 -25 L17 -22 Q106 40 111 134 L20 134 L20 139 L112 139 Q112 143 112 146 ZM133 86 L136 89 Q168 63 182 50 L179 47 Q159 64 133 86 ZM45 193 L48 196 Q56 189 86 159 L82 155 Q78 159 62 175 Q48 190 45 193 Z" /><glyph glyph-name="uni4E3B" unicode="&#x4e3b;" d="M22 157 L233 157 L233 152 L130 152 L130 78 L224 78 L224 73 L130 73 L130 -5 L242 -5 L242 -10 L13 -10 L13 -5 L125 -5 L125 73 L31 73 L31 78 L125 78 L125 152 L22 152 L22 157 ZM114 204 L118 207 L119 206 Q122 201 132 184 Q140 173 142 169 L137 167 Q132 176 114 204 Z" /><glyph glyph-name="uni4E5D" unicode="&#x4e5d;" d="M18 149 L91 149 Q92 175 93 207 L98 207 Q98 198 96 149 L175 149 L175 17 Q174 -11 198 -10 L207 -10 Q233 -11 237 7 Q240 26 240 40 L245 40 Q244 19 241 6 Q237 -15 207 -15 L198 -15 Q169 -16 170 17 L170 144 L95 144 L95 128 Q93 64 76 36 Q60 5 12 -25 L9 -21 Q57 8 72 38 Q88 65 90 128 L91 144 L18 144 L18 149 Z" /><glyph glyph-name="uni4E70" unicode="&#x4e70;" d="M155 160 L160 160 L158 100 Q158 79 152 61 L244 61 L244 56 L150 56 Q134 5 18 -25 L17 -20 Q129 8 145 56 L13 56 L13 61 L147 61 Q153 79 154 101 L155 160 ZM235 184 L235 179 L212 132 L208 134 L229 179 L19 179 L19 184 L235 184 ZM140 32 L142 37 Q154 30 196 6 Q229 -11 241 -18 L239 -23 Q221 -13 171 15 Q147 28 140 32 ZM39 109 L41 113 L98 84 L96 79 L39 109 ZM61 151 L63 155 L115 126 L112 122 L61 151 Z" /><glyph glyph-name="uni4E86" unicode="&#x4e86;" d="M231 184 L231 179 L135 110 L135 13 Q137 -20 102 -18 L71 -17 L72 -12 L102 -13 Q133 -16 130 13 L130 112 L222 179 L20 179 L20 184 L231 184 Z" /><glyph glyph-name="uni4E8C" unicode="&#x4e8c;" d="M14 4 L242 4 L242 0 L14 0 L14 4 ZM32 174 L225 174 L225 169 L32 169 L32 174 Z" /><glyph glyph-name="uni4E91" unicode="&#x4e91;" d="M161 65 L164 68 L234 -15 L230 -18 L213 1 Q96 0 36 -3 L22 -5 L21 0 Q28 0 30 0 Q75 43 110 102 L114 99 Q81 43 37 0 Q49 1 146 4 Q199 6 209 6 L161 65 ZM13 110 L243 110 L243 105 L13 105 L13 110 ZM35 183 L220 183 L220 178 L35 178 L35 183 Z" /><glyph glyph-name="uni4E94" unicode="&#x4e94;" d="M26 102 L90 102 L103 177 L26 177 L26 182 L231 182 L231 177 L108 177 L95 102 L203 102 L203 -3 L245 -3 L245 -7 L12 -7 L12 -3 L71 -3 L89 97 L26 97 L26 102 ZM198 97 L94 97 L76 -3 L198 -3 L198 97 Z" /><glyph glyph-name="uni4EA7" unicode="&#x4ea7;" d="M40 102 L150 102 Q167 122 189 155 L193 153 Q179 132 156 102 L239 102 L239 97 L45 97 L45 61 Q48 6 15 -26 L11 -23 Q43 8 40 61 L40 102 ZM22 172 L244 172 L244 167 L22 167 L22 172 ZM71 153 L75 155 L105 116 L102 113 L71 153 ZM119 205 L123 207 L142 175 L138 173 L119 205 Z" /><glyph glyph-name="uni4EAC" unicode="&#x4eac;" d="M45 128 L211 128 L211 65 L133 65 L133 1 Q135 -24 106 -22 L81 -22 L81 -17 L106 -17 Q131 -19 129 1 L129 65 L45 65 L45 128 ZM206 123 L50 123 L50 70 L206 70 L206 123 ZM14 167 L242 167 L242 162 L14 162 L14 167 ZM11 -3 Q47 15 76 41 L80 37 Q49 10 14 -7 L11 -3 ZM174 37 L176 41 Q181 38 197 28 Q233 5 243 0 L240 -4 Q210 13 174 37 ZM116 205 L121 207 L140 171 L136 169 L116 205 Z" /><glyph glyph-name="uni4ED8" unicode="&#x4ed8;" d="M82 145 L200 145 L200 202 L205 202 L205 145 L244 145 L244 140 L205 140 L205 15 Q207 -20 171 -19 Q146 -19 135 -18 L135 -13 Q146 -14 171 -14 Q203 -16 200 15 L200 140 L82 140 L82 145 ZM10 77 Q48 128 74 206 L79 205 Q69 176 54 142 L54 -23 L49 -23 L49 132 Q30 94 14 74 L10 77 ZM97 105 L101 108 L152 51 L148 48 L97 105 Z" /><glyph glyph-name="uni4F01" unicode="&#x4f01;" d="M133 133 L138 133 L138 75 L209 75 L209 70 L138 70 L138 -2 L242 -2 L242 -6 L15 -6 L15 -2 L56 -2 L56 94 L60 94 L60 -2 L133 -2 L133 133 ZM10 105 Q91 149 132 207 L136 204 Q134 201 131 197 Q170 148 245 110 L243 106 Q168 143 128 193 Q88 142 13 101 L10 105 Z" /><glyph glyph-name="uni4F18" unicode="&#x4f18;" d="M135 147 L136 206 L141 206 L140 147 Q140 145 140 142 Q139 138 139 136 L242 136 L242 131 L171 131 L171 15 Q170 -10 195 -8 L209 -8 Q238 -9 238 14 Q240 32 240 44 L245 44 Q245 39 244 29 Q244 19 243 14 Q241 -14 209 -13 L195 -13 Q165 -14 166 15 L166 131 L139 131 Q137 31 68 -25 L65 -21 Q132 34 134 131 L79 131 L79 136 L134 136 Q134 142 135 147 ZM10 78 Q46 130 70 206 L75 205 Q66 175 53 146 L53 -24 L48 -24 L48 135 Q31 101 14 75 L10 78 ZM175 188 L178 192 Q183 188 193 180 Q208 168 219 159 L216 155 Q205 166 175 188 Z" /><glyph glyph-name="uni4F53" unicode="&#x4f53;" d="M62 20 Q122 80 146 153 L77 153 L77 158 L152 158 L152 206 L157 206 L157 158 L236 158 L236 153 L162 153 Q189 75 246 23 L242 19 Q183 73 157 153 L157 31 L207 31 L207 27 L157 27 L157 -26 L152 -26 L152 27 L101 27 L101 31 L152 31 L151 153 Q127 78 66 17 L62 20 ZM10 78 Q45 130 67 206 L72 205 Q64 177 50 142 L50 -24 L45 -24 L45 130 Q28 95 14 75 L10 78 Z" /><glyph glyph-name="uni500D" unicode="&#x500d;" d="M98 64 L222 64 L222 -25 L217 -25 L217 -7 L103 -7 L103 -25 L98 -25 L98 64 ZM103 59 L103 -2 L217 -2 L217 59 L103 59 ZM10 76 Q44 131 64 206 L69 205 Q60 173 48 141 L48 -25 L43 -25 L43 130 Q28 94 14 74 L10 76 ZM76 104 L174 104 L212 155 L216 152 L180 104 L244 104 L244 99 L76 99 L76 104 ZM85 170 L236 170 L236 165 L85 165 L85 170 ZM104 151 L108 154 L138 117 L134 114 L104 151 ZM148 205 L152 207 L172 176 L168 174 L148 205 Z" /><glyph glyph-name="uni507F" unicode="&#x507f;" d="M183 31 L186 35 L236 -20 L233 -23 L220 -8 Q109 -11 94 -12 L85 -13 L84 -8 Q90 -7 91 -7 Q113 12 141 52 L72 52 L72 57 L244 57 L244 52 L147 52 Q122 15 98 -7 Q107 -6 157 -5 Q206 -3 215 -3 L183 31 ZM9 78 Q39 127 60 205 L65 204 Q58 176 47 147 L47 -25 L42 -25 L42 134 Q27 97 13 75 L9 78 ZM81 147 L158 147 L158 205 L163 205 L163 147 L238 147 L238 106 L233 106 L233 143 L86 143 L86 107 L81 107 L81 147 ZM102 101 L215 101 L215 96 L102 96 L102 101 ZM190 160 L222 193 L226 190 L194 156 L190 160 ZM94 190 L98 194 L126 161 L122 158 L94 190 Z" /><glyph glyph-name="uni50A8" unicode="&#x50a8;" d="M170 208 L175 208 L175 170 L212 170 L212 165 L175 165 L175 124 L190 124 Q217 154 236 187 L240 184 Q221 151 197 124 L246 124 L246 120 L193 120 Q174 100 151 82 L228 82 L228 -25 L223 -25 L223 -6 L148 -6 L148 -25 L143 -25 L143 75 Q130 65 113 54 L110 58 Q160 91 186 120 L119 120 L119 124 L170 124 L170 165 L132 165 L132 170 L170 170 L170 208 ZM148 77 L148 39 L223 39 L223 77 L148 77 ZM148 34 L148 -1 L223 -1 L223 34 L148 34 ZM10 76 Q42 129 61 206 L66 205 Q58 175 47 144 L47 -25 L42 -25 L42 131 Q25 90 15 73 L10 76 ZM63 121 L95 121 L95 -5 L122 23 L125 20 L95 -12 Q95 -12 94 -13 Q93 -16 91 -19 L87 -16 Q91 -10 90 -8 L90 116 L63 116 L63 121 ZM82 199 L86 202 L110 158 L106 156 L82 199 Z" /><glyph glyph-name="uni514D" unicode="&#x514d;" d="M184 177 L184 172 L144 131 L215 131 L215 63 L138 63 L138 15 Q135 -16 169 -13 L199 -13 Q232 -15 234 7 Q236 11 238 31 Q238 33 238 34 L243 34 Q241 19 239 6 Q237 -19 199 -18 L169 -18 Q132 -20 134 15 L134 63 L120 63 Q105 11 12 -26 L10 -21 Q99 13 115 63 L39 63 L39 131 L137 131 L178 172 L75 172 Q49 140 13 113 L9 117 Q60 154 94 207 L98 204 Q97 202 94 198 Q85 183 79 177 L184 177 ZM130 126 Q130 92 122 68 L210 68 L210 126 L130 126 ZM44 126 L44 68 L117 68 Q125 92 125 126 L44 126 Z" /><glyph glyph-name="uni5168" unicode="&#x5168;" d="M51 116 L205 116 L205 111 L131 111 L131 59 L216 59 L216 54 L131 54 L131 -1 L236 -1 L236 -6 L20 -6 L20 -1 L126 -1 L126 54 L41 54 L41 59 L126 59 L126 111 L51 111 L51 116 ZM10 109 Q92 152 132 207 L136 204 Q135 203 135 202 Q134 200 131 197 Q169 149 246 111 L243 107 Q170 143 128 193 Q85 143 12 105 L10 109 Z" /><glyph glyph-name="uni516B" unicode="&#x516b;" d="M86 138 Q89 165 90 199 L95 199 Q94 164 91 137 Q80 36 13 -20 L10 -16 Q76 39 86 138 ZM160 199 L165 199 Q165 165 169 138 Q182 38 245 -16 L242 -20 Q177 36 164 137 Q161 164 160 199 Z" /><glyph glyph-name="uni516D" unicode="&#x516d;" d="M108 202 L112 205 L148 150 L144 147 L108 202 ZM161 88 L165 91 Q189 56 236 -14 L231 -17 Q208 20 161 88 ZM20 -16 Q56 25 91 91 L96 89 Q57 18 24 -19 L20 -16 ZM15 136 L240 136 L240 131 L15 131 L15 136 Z" /><glyph glyph-name="uni5185" unicode="&#x5185;" d="M126 207 L131 207 Q131 190 131 161 L223 161 L223 14 Q226 -22 186 -19 L158 -19 L158 -14 L186 -14 Q222 -17 218 14 L218 156 L131 156 Q131 143 130 135 Q133 78 60 35 L57 39 Q129 82 125 135 Q126 143 126 156 L38 156 L38 -22 L33 -22 L33 161 L126 161 Q126 190 126 207 ZM129 100 L132 103 L197 44 L194 40 L129 100 Z" /><glyph glyph-name="uni521B" unicode="&#x521b;" d="M36 116 L116 116 Q116 76 115 70 Q116 42 92 43 L70 43 L70 48 L92 48 Q111 46 111 70 Q111 88 111 111 L41 111 L41 16 Q40 -9 65 -8 L102 -8 Q130 -10 131 13 Q133 27 133 41 L138 41 Q138 26 136 13 Q134 -14 102 -13 L65 -13 Q36 -13 36 16 L36 116 ZM221 203 L226 203 L226 14 Q228 -19 195 -17 Q183 -17 170 -17 L170 -12 Q174 -12 183 -13 Q191 -13 195 -13 Q224 -16 221 14 L221 203 ZM11 112 Q61 157 82 207 L87 205 Q84 199 81 193 L147 122 L143 119 L79 188 Q52 140 14 109 L11 112 ZM169 179 L174 179 L174 35 L169 35 L169 179 Z" /><glyph glyph-name="uni521D" unicode="&#x521d;" d="M146 130 L148 179 L105 179 L105 184 L229 184 L225 22 Q225 -17 187 -15 Q182 -15 170 -14 Q159 -14 155 -14 L155 -9 Q163 -10 187 -10 Q221 -12 220 23 L224 179 L153 179 L151 130 Q153 22 82 -24 L79 -20 Q119 10 131 40 Q144 68 146 130 ZM17 155 L89 155 L89 150 Q77 124 58 100 L58 81 L59 83 Q64 80 72 72 Q81 83 101 108 L105 105 Q85 79 76 70 Q82 65 93 55 Q104 46 106 44 L103 40 Q90 52 58 78 L58 -24 L53 -24 L53 94 Q35 73 13 55 L10 59 Q58 97 84 150 L17 150 L17 155 ZM45 205 L49 208 Q52 204 61 189 Q71 173 73 169 L69 166 Q68 167 65 172 Q49 198 45 205 Z" /><glyph glyph-name="uni52A1" unicode="&#x52a1;" d="M215 179 L215 175 Q185 143 136 122 Q175 104 245 95 L244 90 Q172 99 130 119 Q79 98 12 87 L11 91 Q76 103 124 122 Q88 140 65 166 Q44 146 21 129 L18 133 Q67 169 92 207 L97 205 Q89 193 78 179 L215 179 ZM73 175 L68 170 Q92 142 130 125 Q178 145 208 175 L73 175 ZM22 63 L101 63 Q102 66 103 82 Q104 88 104 90 L109 89 Q107 73 106 63 L213 63 L209 10 Q209 -20 164 -18 L126 -17 L126 -13 L164 -13 Q204 -15 204 10 L208 58 L105 58 Q104 2 13 -25 L12 -21 Q99 6 100 58 L22 58 L22 63 Z" /><glyph glyph-name="uni52BF" unicode="&#x52bf;" d="M23 53 L99 53 Q100 58 102 74 L106 73 Q106 63 104 53 L214 53 L211 8 Q211 -20 169 -18 L129 -18 L129 -13 L169 -14 Q208 -16 206 9 L208 48 L103 48 Q102 0 13 -25 L11 -21 Q97 3 99 48 L23 48 L23 53 ZM110 141 L112 145 L141 131 Q148 146 149 169 L111 169 L111 174 L149 174 L150 207 L155 207 L154 174 L208 174 L208 155 Q208 105 214 94 Q217 86 225 86 Q233 86 236 98 Q240 112 240 126 L245 125 Q243 106 240 97 Q237 81 225 81 Q215 81 209 92 Q203 104 203 155 L203 169 L154 169 Q152 144 146 128 L181 109 L179 105 L144 124 Q132 101 97 79 L94 83 Q130 105 139 126 L110 141 ZM61 207 L66 207 L66 174 L102 174 L102 169 L66 169 L66 133 L101 138 L102 133 L66 129 L66 105 Q68 78 42 80 L25 81 L26 86 L42 85 Q63 83 61 105 L61 128 L13 122 L12 127 L61 133 L61 169 L16 169 L16 174 L61 174 L61 207 Z" /><glyph glyph-name="uni5341" unicode="&#x5341;" d="M125 206 L130 206 L130 110 L243 110 L243 105 L130 105 L130 -25 L125 -25 L125 105 L13 105 L13 110 L125 110 L125 206 Z" /><glyph glyph-name="uni53CA" unicode="&#x53ca;" d="M163 122 L217 122 L217 117 Q198 69 157 33 Q189 6 244 -17 L242 -22 Q184 3 154 30 Q122 2 56 -26 L54 -21 Q118 5 150 33 Q96 82 79 147 L78 128 Q73 38 14 -23 L10 -20 Q68 40 73 129 Q76 160 76 181 L25 181 L25 186 L195 186 L195 181 L163 122 ZM80 164 Q96 88 154 36 Q193 72 211 117 L158 117 L158 122 L190 181 L81 181 L80 164 Z" /><glyph glyph-name="uni5408" unicode="&#x5408;" d="M46 71 L210 71 L210 -25 L205 -25 L205 -5 L51 -5 L51 -24 L46 -24 L46 71 ZM51 66 L51 -1 L205 -1 L205 66 L51 66 ZM11 108 Q93 153 132 207 L136 205 Q134 201 131 198 Q172 147 246 110 L244 106 Q169 143 128 194 Q86 142 13 104 L11 108 ZM60 120 L195 120 L195 115 L60 115 L60 120 Z" /><glyph glyph-name="uni540E" unicode="&#x540e;" d="M84 76 L218 76 L218 -25 L213 -25 L213 -5 L89 -5 L89 -25 L84 -25 L84 76 ZM89 71 L89 0 L213 0 L213 71 L89 71 ZM45 179 Q142 180 225 190 L226 185 Q159 176 50 174 L50 127 L244 127 L244 122 L50 122 L50 105 Q50 55 43 31 Q37 5 16 -24 L12 -22 Q33 6 39 31 Q45 55 45 105 L45 179 Z" /><glyph glyph-name="uni54C1" unicode="&#x54c1;" d="M52 189 L204 189 L204 117 L52 117 L52 189 ZM199 185 L57 185 L57 122 L199 122 L199 185 ZM146 78 L228 78 L228 -25 L223 -25 L223 -4 L151 -4 L151 -25 L146 -25 L146 78 ZM28 78 L109 78 L109 -25 L104 -25 L104 -4 L33 -4 L33 -25 L28 -25 L28 78 ZM151 73 L151 0 L223 0 L223 73 L151 73 ZM33 73 L33 0 L104 0 L104 73 L33 73 Z" /><glyph glyph-name="uni552E" unicode="&#x552e;" d="M10 126 Q42 158 66 207 L70 205 Q64 190 54 174 L235 174 L235 169 L145 169 L145 141 L228 141 L228 136 L145 136 L145 108 L228 108 L228 103 L145 103 L145 74 L243 74 L243 69 L51 69 L51 56 L46 56 L46 162 Q29 136 13 123 L10 126 ZM42 -25 L42 41 L216 41 L216 -25 L211 -25 L211 -9 L47 -9 L47 -25 L42 -25 ZM47 37 L47 -4 L211 -4 L211 37 L47 37 ZM51 103 L51 74 L140 74 L140 103 L51 103 ZM51 169 L51 141 L140 141 L140 169 L51 169 ZM51 136 L51 108 L140 108 L140 136 L51 136 ZM130 204 L134 207 L157 180 L153 177 L130 204 Z" /><glyph glyph-name="uni56DB" unicode="&#x56db;" d="M28 186 L228 186 L228 -25 L223 -25 L223 -3 L33 -3 L33 -25 L28 -25 L28 186 ZM33 181 L33 0 L223 0 L223 181 L159 181 L159 91 Q157 60 186 62 L215 62 L215 57 L186 57 Q153 55 154 91 L154 181 L101 181 L101 132 Q106 70 51 40 L48 44 Q78 62 86 80 Q95 96 95 132 L95 181 L33 181 Z" /><glyph glyph-name="uni5747" unicode="&#x5747;" d="M98 115 Q131 159 147 206 L152 204 Q145 183 134 163 L232 163 L230 25 Q229 -19 187 -18 Q172 -18 148 -16 L149 -11 Q171 -13 187 -13 Q225 -15 225 26 L228 158 L131 158 Q117 132 102 112 L98 115 ZM56 208 L61 208 L61 142 L91 142 L91 137 L61 137 L61 36 L102 52 L104 47 L9 11 L8 16 L56 34 L56 137 L18 137 L18 142 L56 142 L56 208 ZM96 19 L209 80 L211 75 L98 15 L96 19 ZM131 120 L135 123 L175 84 L171 81 L131 120 Z" /><glyph glyph-name="uni57FA" unicode="&#x57fa;" d="M189 207 L194 207 L194 178 L235 178 L235 173 L194 173 L194 77 L244 77 L244 72 L167 72 Q195 40 246 20 L244 16 Q188 37 161 72 L94 72 Q69 40 13 14 L11 18 Q60 41 89 72 L13 72 L13 77 L62 77 L62 173 L22 173 L22 178 L62 178 L62 207 L67 207 L67 178 L189 178 L189 207 ZM67 140 L67 111 L189 111 L189 140 L67 140 ZM67 106 L67 77 L189 77 L189 106 L67 106 ZM67 173 L67 145 L189 145 L189 173 L67 173 ZM126 57 L131 57 L131 33 L192 33 L192 28 L131 28 L131 -7 L235 -7 L235 -12 L21 -12 L21 -7 L126 -7 L126 28 L64 28 L64 33 L126 33 L126 57 Z" /><glyph glyph-name="uni5907" unicode="&#x5907;" d="M45 82 L210 82 L210 -25 L206 -25 L206 -11 L50 -11 L50 -25 L45 -25 L45 82 ZM19 134 Q67 171 89 207 L93 205 Q87 193 77 181 L212 181 L212 176 Q181 145 135 124 Q178 106 245 99 L244 94 Q169 103 129 121 Q87 103 12 91 L11 95 Q80 107 123 124 Q87 140 63 166 Q40 142 22 130 L19 134 ZM72 176 L66 169 Q97 140 129 127 Q174 146 205 176 L72 176 ZM50 32 L50 -6 L125 -6 L125 32 L50 32 ZM130 32 L130 -6 L206 -6 L206 32 L130 32 ZM50 77 L50 37 L125 37 L125 77 L50 77 ZM206 77 L130 77 L130 37 L206 37 L206 77 Z" /><glyph glyph-name="uni5B50" unicode="&#x5b50;" d="M223 184 L223 179 L132 117 L132 92 L245 92 L245 88 L132 88 L132 13 Q134 -19 99 -17 L69 -17 L69 -12 L99 -12 Q130 -15 127 13 L127 88 L11 88 L11 92 L127 92 L127 119 L214 179 L33 179 L33 184 L223 184 Z" /><glyph glyph-name="uni5B58" unicode="&#x5b58;" d="M10 61 Q58 108 86 169 L13 169 L13 174 L89 174 Q96 191 102 207 L107 205 Q106 203 104 198 Q101 190 94 174 L245 174 L245 169 L92 169 Q77 136 57 108 L57 -24 L52 -24 L52 101 Q34 77 14 58 L10 61 ZM233 130 L233 125 L172 83 L172 65 L246 65 L246 60 L172 60 L172 4 Q174 -22 140 -21 L115 -20 L115 -15 L140 -16 Q169 -18 167 4 L167 60 L78 60 L78 65 L167 65 L167 86 L224 125 L96 125 L96 130 L233 130 Z" /><glyph glyph-name="uni5B89" unicode="&#x5b89;" d="M52 53 Q66 74 78 98 L11 98 L11 103 L81 103 Q83 107 87 115 Q97 137 102 149 L106 147 Q97 124 86 103 L244 103 L244 98 L196 98 Q178 46 142 21 Q157 14 186 2 Q221 -12 234 -18 L232 -23 Q217 -16 177 1 Q152 12 138 18 Q101 -6 13 -25 L12 -21 Q100 0 132 20 Q94 37 52 53 ZM137 23 Q174 46 191 98 L84 98 Q74 78 60 56 Q70 52 97 40 Q123 29 137 23 ZM115 205 L120 207 L140 173 L136 171 L230 171 L230 133 L225 133 L225 166 L32 166 L32 130 L27 130 L27 171 L135 171 L115 205 Z" /><glyph glyph-name="uni5B98" unicode="&#x5b98;" d="M53 131 L201 131 L201 79 L58 79 L58 46 L208 46 L208 -24 L203 -24 L203 -8 L58 -8 L58 -26 L53 -26 L53 131 ZM203 41 L58 41 L58 -3 L203 -3 L203 41 ZM196 126 L58 126 L58 83 L196 83 L196 126 ZM117 205 L121 207 L138 172 L233 172 L233 133 L228 133 L228 167 L29 167 L29 133 L24 133 L24 172 L133 172 L117 205 Z" /><glyph glyph-name="uni5BBD" unicode="&#x5bbd;" d="M16 131 L84 131 L84 158 L89 158 L89 131 L167 131 L167 158 L172 158 L172 131 L240 131 L240 126 L172 126 L172 103 L167 103 L167 126 L89 126 L89 103 L84 103 L84 126 L16 126 L16 131 ZM117 204 L121 206 L137 177 L230 177 L230 144 L225 144 L225 173 L30 173 L30 142 L25 142 L25 177 L131 177 L117 204 ZM48 91 L208 91 L208 23 L204 23 L204 86 L53 86 L53 23 L48 23 L48 91 ZM137 46 L142 46 L142 8 Q141 -14 167 -13 L201 -13 Q233 -15 236 6 Q236 9 237 15 Q238 24 239 28 L243 27 Q243 15 240 6 Q238 -18 201 -17 L167 -17 Q136 -18 137 8 L137 46 ZM12 -20 Q124 6 125 55 Q126 64 126 73 L131 73 Q131 62 130 54 Q128 3 13 -25 L12 -20 Z" /><glyph glyph-name="uni5BF9" unicode="&#x5bf9;" d="M23 139 L27 142 Q39 126 71 78 Q91 120 100 173 L20 173 L20 178 L105 178 L105 173 Q96 118 74 73 Q106 23 115 8 L111 5 Q92 36 71 68 Q49 21 14 -11 L11 -7 Q46 25 68 73 Q52 99 23 139 ZM113 150 L205 150 L205 201 L210 201 L210 150 L245 150 L245 145 L210 145 L210 12 Q212 -19 180 -17 Q156 -17 146 -16 L146 -12 Q164 -12 180 -12 Q208 -15 205 12 L205 145 L113 145 L113 150 ZM125 107 L129 110 L167 55 L164 52 L125 107 Z" /><glyph glyph-name="uni5C0F" unicode="&#x5c0f;" d="M129 202 L134 202 L134 13 Q137 -19 99 -17 Q86 -17 68 -17 L68 -12 Q74 -12 86 -13 Q95 -13 99 -13 Q132 -15 129 13 L129 202 ZM11 32 Q43 86 64 148 L69 146 Q48 83 15 29 L11 32 ZM183 145 L188 147 Q193 138 207 109 Q236 52 246 32 L241 30 Q206 102 183 145 Z" /><glyph glyph-name="uni5E26" unicode="&#x5e26;" d="M125 95 L130 95 L130 66 L212 66 L212 18 Q212 3 205 0 Q199 -6 184 -6 L155 -5 L155 0 L184 -1 Q198 -1 202 2 Q208 6 207 18 L207 61 L130 61 L130 -26 L125 -26 L125 61 L48 61 L48 -7 L44 -7 L44 66 L125 66 L125 95 ZM186 207 L191 207 L191 171 L244 171 L244 166 L191 166 L191 136 L186 136 L186 166 L130 166 L130 136 L125 136 L125 166 L69 166 L69 136 L65 136 L65 166 L11 166 L11 171 L65 171 L65 207 L69 207 L69 171 L125 171 L125 207 L130 207 L130 171 L186 171 L186 207 ZM20 117 L235 117 L235 78 L230 78 L230 112 L25 112 L25 77 L20 77 L20 117 Z" /><glyph glyph-name="uni5E7F" unicode="&#x5e7f;" d="M135 204 L139 206 Q140 204 143 199 Q157 175 160 169 L155 167 Q147 183 135 204 ZM47 161 L245 161 L245 156 L51 156 L51 105 Q51 53 44 27 Q37 1 15 -24 L11 -21 Q33 4 40 29 Q47 54 47 105 L47 161 Z" /><glyph glyph-name="uni5EF6" unicode="&#x5ef6;" d="M84 185 L84 180 L24 109 L83 109 L83 104 Q77 59 56 25 Q88 -8 158 -8 L246 -8 L246 -13 L158 -13 Q91 -13 53 21 Q42 2 13 -25 L10 -21 Q38 4 50 24 Q28 47 18 84 L23 85 Q32 51 52 28 Q72 60 79 104 L18 104 L18 109 L77 180 L15 180 L15 185 L84 185 ZM116 138 L121 138 L121 39 L174 39 L174 175 Q164 175 144 174 Q115 172 105 172 L105 177 Q165 179 237 185 L238 180 Q232 180 218 179 Q192 177 179 176 L179 115 L232 115 L232 110 L179 110 L179 39 L238 39 L238 34 L116 34 L116 138 Z" /><glyph glyph-name="uni5FC5" unicode="&#x5fc5;" d="M12 -4 Q49 13 80 36 L80 158 L84 158 L84 39 Q163 97 213 185 L217 183 Q167 91 84 34 L84 26 Q82 -9 125 -7 L153 -7 Q197 -9 196 18 Q196 19 196 23 Q199 47 199 55 L204 55 Q204 47 202 26 Q201 20 201 17 Q200 -14 153 -12 L125 -12 Q79 -13 80 26 L80 30 Q50 9 14 -8 L12 -4 ZM13 51 Q29 92 38 134 L42 133 Q34 89 17 49 L13 51 ZM203 120 L207 123 L245 52 L241 50 Q235 61 218 93 Q206 114 203 120 ZM103 204 L107 207 Q113 201 131 179 Q149 157 154 150 L150 146 L103 204 Z" /><glyph glyph-name="uni60E0" unicode="&#x60e0;" d="M13 55 L125 57 L125 85 L38 85 L38 152 L125 152 L125 177 L15 177 L15 182 L125 182 L125 207 L130 207 L130 182 L241 182 L241 177 L130 177 L130 152 L217 152 L217 85 L130 85 L130 57 L215 59 L198 75 L201 79 L239 41 L236 37 L219 54 L13 50 L13 55 ZM43 147 L43 121 L125 121 L125 147 L43 147 ZM212 147 L130 147 L130 121 L212 121 L212 147 ZM43 116 L43 90 L125 90 L125 116 L43 116 ZM130 90 L212 90 L212 116 L130 116 L130 90 ZM73 36 L78 36 L78 9 Q77 -14 105 -13 L152 -13 Q178 -13 182 3 Q184 15 184 23 L189 23 Q189 12 186 2 Q183 -17 152 -17 L105 -17 Q73 -17 73 9 L73 36 ZM10 -10 Q27 8 40 35 L45 33 Q32 8 14 -13 L10 -10 ZM207 30 L210 34 Q233 9 245 -5 L241 -8 Q228 7 207 30 ZM114 38 L117 42 L146 15 L143 12 L114 38 Z" /><glyph glyph-name="uni6210" unicode="&#x6210;" d="M114 99 L112 37 Q112 4 80 6 L58 6 L58 11 L80 11 Q108 9 107 38 L109 94 L44 94 L44 86 Q46 18 14 -25 L10 -22 Q41 19 39 86 L39 153 L151 153 Q149 178 148 206 L153 206 Q154 178 156 153 L244 153 L244 148 L156 148 Q160 81 172 38 Q201 75 219 119 L223 117 Q201 65 174 33 Q182 9 195 -5 Q204 -18 216 -18 Q227 -18 232 -1 Q239 26 240 38 L245 37 Q239 4 237 -2 Q231 -23 216 -23 Q203 -24 191 -8 Q181 2 170 28 Q151 5 119 -19 L116 -15 Q153 13 169 34 Q156 68 152 148 L44 148 L44 99 L114 99 ZM181 194 L183 198 Q207 183 226 169 L223 165 Q211 174 181 194 Z" /><glyph glyph-name="uni6301" unicode="&#x6301;" d="M48 205 L53 205 L53 151 L85 151 L85 146 L53 146 L53 84 L83 94 L84 89 L53 79 L53 0 Q54 -21 31 -20 L13 -20 L13 -15 L31 -15 Q49 -16 48 0 L48 78 L12 67 L10 71 L48 83 L48 146 L14 146 L14 151 L48 151 L48 205 ZM167 206 L172 206 L172 167 L232 167 L232 162 L172 162 L172 117 L245 117 L245 112 L90 112 L90 117 L167 117 L167 162 L105 162 L105 167 L167 167 L167 206 ZM94 70 L200 70 L200 97 L205 97 L205 70 L242 70 L242 65 L205 65 L205 10 Q207 -23 174 -21 L152 -21 L152 -16 L174 -16 Q203 -19 200 10 L200 65 L94 65 L94 70 ZM113 46 L117 49 L152 15 L148 11 L113 46 Z" /><glyph glyph-name="uni63A8" unicode="&#x63a8;" d="M72 106 Q103 145 126 207 L130 206 Q122 182 110 158 L242 158 L242 153 L180 153 L180 105 L237 105 L237 100 L180 100 L180 53 L237 53 L237 48 L180 48 L180 -1 L245 -1 L245 -6 L109 -6 L109 -25 L104 -25 L104 145 Q90 120 76 103 L72 106 ZM109 48 L109 -1 L175 -1 L175 48 L109 48 ZM109 100 L109 53 L175 53 L175 100 L109 100 ZM109 153 L109 105 L175 105 L175 153 L109 153 ZM47 205 L52 205 L52 152 L80 152 L80 147 L52 147 L52 83 L81 91 L82 87 L52 78 L52 1 Q52 -20 30 -20 L14 -20 L14 -15 L30 -15 Q48 -16 47 1 L47 77 L12 67 L11 72 L47 82 L47 147 L14 147 L14 152 L47 152 L47 205 ZM166 202 L169 205 L194 170 L190 167 L166 202 Z" /><glyph glyph-name="uni652F" unicode="&#x652f;" d="M125 207 L130 207 L130 166 L240 166 L240 161 L130 161 L130 114 L204 114 L204 109 Q182 56 133 25 Q169 3 245 -19 L244 -23 Q161 0 128 22 Q93 -1 12 -25 L10 -21 Q88 2 123 25 Q77 53 54 109 L36 109 L36 114 L125 114 L125 161 L15 161 L15 166 L125 166 L125 207 ZM59 109 Q82 55 128 27 Q176 58 199 109 L59 109 Z" /><glyph glyph-name="uni6545" unicode="&#x6545;" d="M64 207 L69 207 L69 152 L123 152 L123 147 L69 147 L69 88 L109 88 L109 -13 L104 -13 L104 0 L29 0 L29 -20 L24 -20 L24 88 L64 88 L64 147 L11 147 L11 152 L64 152 L64 207 ZM121 101 Q152 149 169 207 L174 206 Q168 183 156 157 L245 157 L245 152 L223 152 Q218 79 186 38 Q205 11 246 -20 L242 -23 Q197 13 183 34 Q165 9 118 -25 L115 -21 Q159 11 180 38 Q153 75 146 134 Q132 108 125 99 L121 101 ZM29 83 L29 3 L104 3 L104 83 L29 83 ZM154 152 L150 143 Q157 79 183 42 Q214 83 219 152 L154 152 Z" /><glyph glyph-name="uni65BD" unicode="&#x65bd;" d="M120 130 L125 130 L125 91 L173 106 L173 149 L178 149 L178 107 L233 124 L231 63 Q231 36 206 38 L189 38 L189 43 L206 43 Q227 41 226 63 L228 118 L178 102 L178 14 L173 14 L173 100 L125 86 L125 15 Q123 -13 151 -11 L202 -11 Q237 -13 238 10 Q238 13 239 21 Q240 29 240 32 L245 31 Q244 28 243 18 Q242 12 242 9 Q241 -17 202 -15 L151 -15 Q118 -17 120 15 L120 84 L98 77 L97 82 L120 89 L120 130 ZM15 160 L101 160 L101 155 L44 155 L43 109 L88 109 L87 12 Q87 -18 62 -16 L42 -15 L42 -11 L62 -11 Q82 -13 82 12 L83 104 L43 104 Q44 16 15 -22 L11 -20 Q27 4 32 30 Q38 53 39 112 L39 155 L15 155 L15 160 ZM98 122 Q126 158 141 208 L146 207 Q140 188 132 171 L245 171 L245 166 L130 166 Q118 140 102 119 L98 122 ZM48 205 L52 207 L71 166 L67 164 L48 205 Z" /><glyph glyph-name="uni65F6" unicode="&#x65f6;" d="M30 -4 L30 181 L95 181 L95 -2 L91 -2 L91 20 L35 20 L35 -4 L30 -4 ZM35 176 L35 102 L91 102 L91 176 L35 176 ZM35 97 L35 25 L91 25 L91 97 L35 97 ZM110 150 L204 150 L204 201 L209 201 L209 150 L246 150 L246 145 L209 145 L209 17 Q211 -19 174 -17 Q148 -17 136 -16 L137 -12 Q157 -12 174 -12 Q206 -14 204 17 L204 145 L110 145 L110 150 ZM127 107 L131 110 L168 55 L164 52 L127 107 Z" /><glyph glyph-name="uni670D" unicode="&#x670d;" d="M37 190 L99 190 L99 3 Q100 -19 73 -18 Q61 -18 49 -18 L50 -13 Q53 -13 61 -13 Q69 -14 73 -14 Q95 -16 93 3 L93 63 L41 63 Q41 5 13 -25 L9 -22 Q27 1 32 23 Q37 45 37 100 L37 190 ZM129 188 L228 188 L227 157 Q226 129 194 131 L167 131 L167 136 L194 135 Q221 133 222 157 L223 184 L133 184 L133 107 L231 107 L231 102 Q221 58 193 25 Q209 5 244 -14 L242 -19 Q211 -1 190 21 Q169 0 138 -19 L135 -15 Q166 3 187 25 Q161 56 152 102 L133 102 L133 -25 L129 -25 L129 188 ZM157 102 Q166 59 190 29 Q217 60 226 102 L157 102 ZM42 185 L42 128 L93 128 L93 185 L42 185 ZM42 100 Q42 94 41 82 Q41 72 41 68 L93 68 L93 123 L42 123 L42 100 Z" /><glyph glyph-name="uni673A" unicode="&#x673a;" d="M120 100 L120 186 L197 186 L197 8 Q197 -9 213 -9 L219 -9 Q237 -11 238 7 Q239 10 240 24 Q241 37 241 40 L246 40 Q246 36 245 24 Q244 9 243 6 Q241 -15 219 -14 L213 -14 Q193 -13 192 8 L192 182 L125 182 L125 100 Q125 51 117 29 Q110 6 81 -23 L78 -20 Q105 9 112 31 Q120 52 120 100 ZM15 151 L56 151 L56 205 L61 205 L61 151 L101 151 L101 146 L61 146 L61 -25 L56 -25 L56 130 Q43 83 14 41 L10 44 Q40 88 56 146 L15 146 L15 151 ZM65 107 L68 110 L103 75 L99 72 L65 107 Z" /><glyph glyph-name="uni6848" unicode="&#x6848;" d="M54 108 Q66 119 78 133 L11 133 L11 138 L82 138 Q88 145 99 160 Q102 163 103 165 L107 163 Q99 151 88 138 L245 138 L245 133 L190 133 Q175 106 144 92 Q152 90 168 86 Q215 75 231 70 L230 65 Q197 74 137 89 Q98 73 21 65 L20 69 Q92 78 129 91 Q78 103 54 108 ZM136 94 Q168 106 184 133 L84 133 Q73 120 64 111 Q108 101 136 94 ZM11 -12 Q86 11 122 42 L13 42 L13 47 L125 47 L125 73 L130 73 L130 47 L243 47 L243 42 L135 42 Q171 8 245 -10 L243 -15 Q168 4 130 39 L130 -26 L125 -26 L125 39 Q93 8 13 -16 L11 -12 ZM118 205 L122 208 L137 179 L230 179 L230 151 L225 151 L225 174 L31 174 L31 148 L26 148 L26 179 L132 179 L118 205 Z" /><glyph glyph-name="uni6D41" unicode="&#x6d41;" d="M178 142 L182 146 L237 89 L233 86 L219 100 Q213 100 145 98 Q91 97 87 97 L77 95 L76 100 L83 101 Q112 129 141 164 L76 164 L76 169 L241 169 L241 164 L147 164 Q126 136 90 102 L215 105 L178 142 ZM195 81 L200 81 L200 2 Q199 -15 215 -13 L221 -13 Q240 -15 239 4 Q241 15 241 29 L246 28 Q246 15 244 3 Q244 -19 221 -18 L215 -18 Q194 -19 195 2 L195 81 ZM101 69 L101 81 L106 81 L106 69 Q108 7 60 -25 L57 -22 Q104 10 101 69 ZM148 81 L153 81 L153 -20 L148 -20 L148 81 ZM18 -22 L51 65 L56 63 L23 -23 L18 -22 ZM10 131 L14 135 L55 99 L52 95 L10 131 ZM19 194 L23 197 L63 162 L60 159 L19 194 ZM144 205 L148 207 L168 173 L164 170 L144 205 Z" /><glyph glyph-name="uni7528" unicode="&#x7528;" d="M43 187 L227 187 L227 6 Q228 -22 197 -21 Q193 -21 182 -20 Q171 -20 168 -20 L168 -15 Q171 -15 182 -15 Q193 -16 197 -16 Q224 -18 222 6 L222 54 L137 54 L137 -16 L132 -16 L132 54 L47 54 Q47 8 16 -25 L12 -22 Q32 0 37 19 Q43 38 43 84 L43 187 ZM222 182 L137 182 L137 122 L222 122 L222 182 ZM48 182 L48 122 L132 122 L132 182 L48 182 ZM137 117 L137 59 L222 59 L222 117 L137 117 ZM48 84 Q48 79 47 71 Q47 63 47 59 L132 59 L132 117 L48 117 L48 84 Z" /><glyph glyph-name="uni76D8" unicode="&#x76d8;" d="M39 50 L217 50 L217 -8 L245 -8 L245 -13 L11 -13 L11 -8 L39 -8 L39 50 ZM58 180 L105 180 Q111 189 120 207 L125 205 Q123 201 117 190 Q113 183 111 180 L207 180 L207 128 L244 128 L244 123 L207 123 L207 101 Q207 83 199 77 Q193 70 175 70 L143 71 L143 76 L175 75 Q190 75 196 80 Q201 84 201 101 L201 123 L63 123 Q66 84 23 56 L20 60 Q61 87 58 123 L14 123 L14 128 L58 128 L58 180 ZM63 175 L63 128 L201 128 L201 175 L63 175 ZM44 45 L44 -8 L98 -8 L98 45 L44 45 ZM212 45 L159 45 L159 -8 L212 -8 L212 45 ZM103 45 L103 -8 L154 -8 L154 45 L103 45 ZM101 106 L103 111 L152 92 L150 88 L101 106 ZM105 158 L107 162 L154 144 L152 139 L105 158 Z" /><glyph glyph-name="uni7840" unicode="&#x7840;" d="M15 180 L98 180 L98 176 L61 176 Q54 142 40 112 L84 112 L84 -8 L79 -8 L79 10 L40 10 L40 -10 L35 -10 L35 101 Q26 82 14 65 L10 68 Q42 115 56 176 L15 176 L15 180 ZM40 107 L40 15 L79 15 L79 107 L40 107 ZM169 204 L174 204 L174 102 L220 102 L220 175 L225 175 L225 97 L174 97 L174 -2 L225 -2 L225 67 L229 67 L229 -22 L225 -22 L225 -7 L114 -7 L114 67 L119 67 L119 -2 L169 -2 L169 97 L118 97 L118 175 L123 175 L123 102 L169 102 L169 204 Z" /><glyph glyph-name="uni786C" unicode="&#x786c;" d="M116 47 L120 50 Q133 28 153 14 Q165 30 168 59 L112 59 L112 149 L169 149 L169 182 L104 182 L104 187 L245 187 L245 182 L174 182 L174 149 L231 149 L231 44 L226 44 L226 59 L173 59 Q170 27 157 12 Q188 -7 246 -16 L245 -21 Q184 -11 154 8 Q138 -10 87 -26 L86 -21 Q132 -7 150 10 Q129 26 116 47 ZM36 -7 L36 107 Q26 86 14 68 L10 71 Q42 121 54 179 L15 179 L15 185 L95 185 L95 179 L59 179 Q53 146 39 116 L83 116 L83 -5 L78 -5 L78 13 L40 13 L40 -7 L36 -7 ZM40 111 L40 18 L78 18 L78 111 L40 111 ZM117 144 L117 106 L169 106 L169 144 L117 144 ZM226 144 L174 144 L174 106 L226 106 L226 144 ZM168 64 Q169 72 169 81 L169 101 L117 101 L117 64 L168 64 ZM174 81 Q174 72 174 64 L226 64 L226 101 L174 101 L174 81 Z" /><glyph glyph-name="uni7A0B" unicode="&#x7a0b;" d="M114 189 L226 189 L226 126 L114 126 L114 189 ZM221 184 L119 184 L119 131 L221 131 L221 184 ZM90 -6 L168 -6 L168 38 L112 38 L112 43 L168 43 L168 88 L103 88 L103 92 L237 92 L237 88 L173 88 L173 43 L228 43 L228 38 L173 38 L173 -6 L245 -6 L245 -11 L90 -11 L90 -6 ZM18 182 Q56 184 93 189 L94 184 Q92 184 87 183 Q69 182 58 180 L58 128 L95 128 L95 123 L58 123 L58 -26 L53 -26 L53 107 Q43 69 15 26 L11 28 Q40 72 53 123 L13 123 L13 128 L53 128 L53 180 L19 177 L18 182 ZM58 91 L62 94 L94 57 L90 54 L58 91 Z" /><glyph glyph-name="uni7CFB" unicode="&#x7cfb;" d="M42 63 Q92 86 144 118 L46 114 L33 112 L32 116 L44 120 Q87 143 128 175 L131 171 Q91 141 52 119 Q60 119 86 120 Q148 122 152 123 Q178 138 198 153 L201 148 Q136 103 51 62 Q65 62 120 65 Q187 67 204 68 L165 98 L168 102 Q185 89 233 50 L230 46 L209 63 L135 60 L135 3 Q135 -9 129 -15 Q121 -20 108 -20 Q96 -20 81 -20 L81 -15 Q96 -15 108 -15 Q121 -15 125 -11 Q131 -7 130 3 L130 60 Q120 60 123 60 Q50 58 43 57 Q39 57 28 55 L27 60 Q33 61 38 62 Q41 63 42 63 ZM23 179 Q117 182 231 189 L231 184 Q117 177 23 174 L23 179 ZM11 -7 Q49 13 79 38 L82 34 Q55 11 14 -11 L11 -7 ZM175 33 L178 37 L245 -5 L242 -9 L175 33 Z" /><glyph glyph-name="uni7F51" unicode="&#x7f51;" d="M29 186 L227 186 L227 18 Q230 -23 188 -20 L159 -20 L159 -15 L188 -15 Q226 -19 222 18 L222 181 L34 181 L34 -23 L29 -23 L29 186 ZM47 13 Q71 50 90 88 Q62 138 54 151 L59 153 Q76 124 92 93 Q109 126 121 158 L125 156 Q113 123 95 88 Q117 48 125 34 L121 31 Q113 45 93 83 Q71 40 51 10 L47 13 ZM123 12 Q146 46 164 83 Q147 112 130 140 L134 143 Q137 138 147 122 Q160 101 167 89 Q184 124 196 157 L201 155 Q187 120 169 84 Q193 45 206 20 L202 18 Q198 26 187 45 Q174 67 167 79 Q147 38 127 9 L123 12 Z" /><glyph glyph-name="uni8350" unicode="&#x8350;" d="M10 42 Q57 76 89 128 L12 128 L12 133 L92 133 Q98 143 103 155 L108 153 Q107 150 103 143 Q100 137 98 133 L245 133 L245 128 L95 128 Q80 104 60 81 L60 -24 L55 -24 L55 76 Q36 55 13 38 L10 42 ZM231 92 L173 57 L173 45 L245 45 L245 40 L173 40 L173 1 Q174 -23 143 -22 L120 -22 L120 -17 L143 -17 Q169 -18 168 1 L168 40 L80 40 L80 45 L168 45 L168 60 L222 92 L102 92 L102 97 L231 97 L231 92 ZM11 179 L82 179 L82 207 L87 207 L87 179 L168 179 L168 207 L173 207 L173 179 L242 179 L242 175 L173 175 L173 152 L168 152 L168 175 L87 175 L87 152 L82 152 L82 175 L11 175 L11 179 Z" /><glyph glyph-name="uni8861" unicode="&#x8861;" d="M82 147 L133 147 L156 176 L103 176 Q89 156 71 141 L68 144 Q99 170 115 207 L120 205 Q114 192 106 181 L162 181 L162 176 L139 147 L171 147 L171 68 L82 68 L82 147 ZM166 142 L129 142 L129 110 L166 110 L166 142 ZM87 142 L87 110 L124 110 L124 142 L87 142 ZM129 73 L166 73 L166 105 L129 105 L129 73 ZM87 105 L87 73 L124 73 L124 105 L87 105 ZM182 115 L245 115 L245 110 L222 110 L222 2 Q223 -21 199 -20 Q185 -20 179 -19 L179 -14 Q185 -15 199 -15 Q219 -17 217 2 L217 110 L182 110 L182 115 ZM10 56 Q37 87 57 137 L61 135 Q56 120 45 99 L45 -24 L40 -24 L40 91 Q27 66 14 52 L10 56 ZM68 39 L123 39 Q124 46 124 59 L129 59 Q129 54 129 39 L183 39 L183 34 L128 34 Q125 4 67 -15 L66 -11 Q119 7 123 34 L68 34 L68 39 ZM18 140 Q42 168 59 206 L63 204 Q47 165 21 136 L18 140 ZM127 19 L129 23 L178 -5 L176 -9 L127 19 ZM188 185 L240 185 L240 180 L188 180 L188 185 Z" /><glyph glyph-name="uni89C4" unicode="&#x89c4;" d="M16 155 L55 155 L55 206 L59 206 L59 155 L98 155 L98 151 L59 151 L59 128 Q59 113 59 100 L102 100 L102 95 L59 95 Q58 22 14 -23 L10 -20 Q53 22 54 95 L11 95 L11 100 L54 100 Q54 104 54 113 Q55 123 55 128 L55 151 L16 151 L16 155 ZM115 188 L223 188 L223 52 L218 52 L218 183 L120 183 L120 52 L115 52 L115 188 ZM166 120 Q166 127 167 142 Q167 157 167 163 L172 163 Q172 157 172 143 Q171 126 171 119 Q172 25 88 -24 L85 -20 Q167 28 166 120 ZM172 78 L177 78 L177 9 Q176 -12 196 -11 L213 -11 Q238 -12 239 7 L241 33 L246 33 L243 7 Q242 -16 213 -15 L196 -15 Q171 -16 172 9 L172 78 ZM58 59 L62 62 L97 17 L93 14 L58 59 Z" /><glyph glyph-name="uni89E3" unicode="&#x89e3;" d="M10 124 Q44 159 61 207 L66 206 Q60 191 54 178 L106 178 L106 174 L85 140 L116 140 L116 0 Q116 -21 94 -20 L74 -19 L74 -14 L94 -15 Q112 -16 111 0 L111 44 L77 44 L77 0 L72 0 L72 44 L35 44 Q36 0 15 -24 L10 -21 Q24 -4 27 11 Q30 25 30 70 L30 140 L79 140 L100 174 L52 174 Q36 145 14 121 L10 124 ZM190 112 L195 112 L195 80 L239 80 L239 75 L195 75 L195 33 L246 33 L246 28 L195 28 L195 -25 L190 -25 L190 28 L125 28 L125 33 L190 33 L190 75 L148 75 Q142 60 134 47 L130 50 Q144 74 154 105 L159 104 Q155 90 150 80 L190 80 L190 112 ZM35 135 L35 93 L72 93 L72 135 L35 135 ZM35 70 Q35 59 35 49 L72 49 L72 89 L35 89 L35 70 ZM111 135 L77 135 L77 93 L111 93 L111 135 ZM77 89 L77 49 L111 49 L111 89 L77 89 ZM168 173 L168 182 L135 182 L135 186 L232 186 L230 147 Q229 121 203 123 L182 124 L182 129 L203 128 Q224 126 225 147 L227 182 L173 182 L173 173 Q171 134 129 111 L127 115 Q166 138 168 173 Z" /><glyph glyph-name="uni8BBE" unicode="&#x8bbe;" d="M219 98 L219 93 Q205 50 165 19 Q196 -2 244 -20 L243 -25 Q189 -4 161 16 Q136 -2 78 -26 L76 -21 Q127 -2 157 19 Q120 50 108 93 L87 93 L87 98 L219 98 ZM113 93 Q125 51 161 22 Q200 52 214 93 L113 93 ZM119 190 L207 190 L207 142 Q205 126 226 127 L243 127 L243 122 L226 122 Q201 121 202 142 L202 185 L124 185 L124 163 Q125 132 92 113 L89 117 Q121 135 119 163 L119 190 ZM11 118 L11 123 L49 123 L49 -2 L85 33 L88 29 L50 -8 Q47 -12 44 -15 L40 -13 Q44 -6 44 -5 L44 118 L11 118 ZM26 197 L29 200 L68 158 L64 155 L26 197 Z" /><glyph glyph-name="uni8BD5" unicode="&#x8bd5;" d="M83 153 L176 153 L176 207 L180 207 L181 155 L181 153 L246 153 L246 148 L181 148 Q184 32 205 -4 Q212 -16 221 -16 Q231 -17 234 -1 Q238 13 240 32 L245 31 Q245 28 244 23 Q241 1 239 -3 Q235 -21 221 -21 Q210 -21 201 -6 Q180 30 176 148 L83 148 L83 153 ZM76 -1 L121 4 L121 93 L86 93 L86 98 L158 98 L158 93 L126 93 L126 5 L166 12 L167 7 L77 -6 L76 -1 ZM11 118 L47 118 L47 0 L79 33 L82 30 L48 -6 Q48 -6 46 -8 Q44 -11 42 -14 L38 -11 Q43 -4 42 -4 L42 113 L11 113 L11 118 ZM25 195 L28 198 L65 159 L61 156 L25 195 ZM199 193 L202 197 L236 170 L233 166 L199 193 Z" /><glyph glyph-name="uni8D1F" unicode="&#x8d1f;" d="M14 119 Q68 159 97 207 L101 205 Q94 192 83 178 L192 178 L192 173 L147 129 L215 129 L215 25 L210 25 L210 124 L52 124 L52 25 L48 25 L48 129 L140 129 L185 173 L79 173 Q47 136 17 115 L14 119 ZM128 69 Q130 93 130 103 L134 103 Q134 82 133 68 Q136 7 19 -25 L18 -21 Q133 11 128 69 ZM130 34 L133 38 Q149 30 204 0 Q229 -14 238 -19 L236 -23 Q224 -16 192 0 Q144 26 130 34 Z" /><glyph glyph-name="uni8D28" unicode="&#x8d28;" d="M81 97 L148 97 L148 134 L57 134 L57 139 L148 139 L148 173 L153 173 L153 139 L245 139 L245 134 L153 134 L153 97 L220 97 L220 20 L215 20 L215 92 L86 92 L86 20 L81 20 L81 97 ZM40 182 Q178 185 235 189 L235 184 Q178 179 45 177 L45 108 Q45 54 39 28 Q34 3 14 -25 L10 -22 Q29 5 34 29 Q40 53 40 108 L40 182 ZM148 54 Q150 62 150 79 L155 79 Q155 62 153 53 Q149 0 54 -26 L52 -21 Q145 3 148 54 ZM151 27 L154 31 L244 -20 L242 -25 L151 27 Z" /><glyph glyph-name="uni8D2D" unicode="&#x8d2d;" d="M109 114 Q135 160 147 207 L152 206 Q151 204 150 199 Q146 186 139 166 L229 166 Q227 39 227 26 Q227 -19 190 -18 Q167 -18 157 -16 L158 -12 Q176 -14 190 -14 Q222 -15 222 26 Q222 31 223 84 Q224 152 224 161 L137 161 Q127 134 113 111 L109 114 ZM100 189 L100 45 L95 45 L95 184 L31 184 L31 45 L27 45 L27 189 L100 189 ZM61 155 L66 155 L66 88 Q66 65 63 47 L113 -10 L109 -13 Q105 -8 94 4 Q70 31 62 41 Q57 10 14 -24 L11 -21 Q43 6 52 26 Q61 46 61 88 L61 155 ZM171 94 L175 96 L206 29 L201 27 L196 40 Q159 37 124 35 L117 33 L116 38 Q117 38 118 39 Q120 39 120 39 Q139 74 159 136 L164 135 Q142 69 125 40 Q131 41 160 43 Q188 45 194 45 L171 94 Z" /><glyph glyph-name="uni8D39" unicode="&#x8d39;" d="M28 182 L95 182 L95 206 L100 206 L100 182 L157 182 L157 206 L162 206 L162 182 L221 182 L221 142 L162 142 L162 113 L232 113 L231 97 Q231 78 208 79 L191 79 L191 84 L208 83 Q226 82 226 97 Q227 100 227 108 L162 108 L162 76 L157 76 L157 108 L97 108 Q91 85 55 69 L209 69 L209 15 L204 15 L204 64 L59 64 L59 15 L54 15 L54 69 Q39 62 15 55 L14 60 Q86 80 92 108 L29 108 L36 146 L95 146 L95 177 L28 177 L28 182 ZM100 177 L100 146 L157 146 L157 177 L100 177 ZM100 137 Q101 124 98 113 L157 113 L157 142 L100 142 L100 137 ZM93 113 Q96 124 95 137 L95 142 L40 142 L35 113 L93 113 ZM216 177 L162 177 L162 146 L216 146 L216 177 ZM129 34 Q129 42 131 52 L135 51 Q135 48 134 40 Q134 34 134 33 Q131 -5 24 -25 L23 -20 Q127 0 129 34 ZM132 15 L133 19 Q142 16 167 7 Q221 -11 239 -18 L237 -23 Q211 -13 136 13 Q133 15 132 15 Z" /><glyph glyph-name="uni8D44" unicode="&#x8d44;" d="M48 82 L212 82 L212 16 L207 16 L207 78 L52 78 L52 16 L48 16 L48 82 ZM78 143 Q106 172 121 207 L126 205 Q124 200 118 189 Q115 183 113 180 L234 180 L234 176 L208 141 L204 144 L228 176 L110 176 Q97 157 82 139 L78 143 ZM70 101 Q154 126 152 158 Q153 162 153 172 L158 172 Q158 164 157 159 Q161 124 244 101 L242 97 Q165 118 155 148 Q147 118 72 97 L70 101 ZM128 42 Q130 49 130 63 L135 63 Q135 48 133 41 Q128 -4 15 -25 L14 -21 Q124 0 128 42 ZM131 21 L133 25 L242 -21 L240 -25 L131 21 ZM13 98 L60 147 L64 144 L17 95 L13 98 ZM19 197 L23 201 L64 168 L61 164 L19 197 Z" /><glyph glyph-name="uni8D54" unicode="&#x8d54;" d="M125 63 L227 63 L227 -26 L222 -26 L222 -7 L130 -7 L130 -26 L125 -26 L125 63 ZM130 59 L130 -2 L222 -2 L222 59 L130 59 ZM24 189 L95 189 L95 45 L90 45 L90 184 L29 184 L29 45 L24 45 L24 189 ZM57 155 L62 155 L62 88 Q62 60 58 43 L59 44 L103 -7 L99 -11 L57 39 Q51 10 14 -25 L10 -21 Q40 7 48 27 Q57 47 57 88 L57 155 ZM108 104 L186 104 L218 154 L222 152 L192 104 L245 104 L245 99 L108 99 L108 104 ZM115 170 L238 170 L238 165 L115 165 L115 170 ZM131 151 L135 154 Q136 152 140 147 Q155 124 160 116 L156 113 Q152 120 139 139 Q133 148 131 151 ZM166 204 L170 207 L187 176 L183 173 L166 204 Z" /><glyph glyph-name="uni8F7D" unicode="&#x8f7d;" d="M123 -20 Q158 5 177 30 Q165 70 163 133 L10 133 L10 138 L77 138 L77 168 L24 168 L24 173 L77 173 L77 207 L82 207 L82 173 L135 173 L135 168 L82 168 L82 138 L163 138 L161 207 L166 207 L168 138 L245 138 L245 133 L168 133 Q170 73 181 34 Q205 65 222 107 L227 105 Q209 62 183 29 Q191 6 201 -7 Q210 -19 219 -19 Q228 -19 233 -3 Q234 1 238 23 Q239 30 240 33 L244 32 Q241 8 238 -4 Q232 -24 219 -24 Q207 -25 197 -10 Q187 4 179 24 Q159 0 126 -24 L123 -20 ZM14 100 L56 100 Q66 115 72 127 L76 125 Q71 114 62 100 L141 100 L141 95 L59 95 Q47 74 30 54 L82 54 L82 82 L87 82 L87 54 L137 54 L137 49 L87 49 L87 16 L143 19 L143 14 L87 12 L87 -25 L82 -25 L82 11 L11 8 L10 13 L82 16 L82 49 L24 49 L24 54 Q42 76 53 95 L14 95 L14 100 ZM187 190 L190 194 Q192 192 197 187 Q221 166 229 157 L226 153 Q202 176 187 190 Z" /><glyph glyph-name="uni957F" unicode="&#x957f;" d="M59 205 L64 205 L64 102 L244 102 L244 97 L124 97 Q160 21 245 -10 L243 -15 Q155 18 119 97 L64 97 L64 -15 L130 15 L132 11 L65 -20 Q62 -21 58 -26 L55 -22 Q60 -16 59 -17 L59 97 L13 97 L13 102 L59 102 L59 205 ZM95 131 Q164 156 217 191 L220 187 Q168 154 97 126 L95 131 Z" /><glyph glyph-name="uni969C" unicode="&#x969c;" d="M107 110 L226 110 L226 39 L168 39 L168 12 L245 12 L245 7 L168 7 L168 -26 L164 -26 L164 7 L83 7 L83 12 L164 12 L164 39 L107 39 L107 110 ZM221 105 L112 105 L112 77 L221 77 L221 105 ZM112 44 L221 44 L221 72 L112 72 L112 44 ZM61 110 Q81 84 82 53 Q83 19 55 20 Q47 20 39 21 L39 26 Q47 25 55 25 Q79 23 78 53 Q77 82 56 108 L74 183 L33 183 L33 -25 L28 -25 L28 187 L80 187 L80 183 L61 110 ZM87 138 L184 138 Q185 139 186 140 Q202 161 207 169 L211 167 Q200 149 190 138 L245 138 L245 133 L87 133 L87 138 ZM160 205 L165 207 L174 178 L238 178 L238 173 L94 173 L94 178 L169 178 L160 205 ZM121 166 L124 169 L144 144 L140 141 L121 166 Z" /><glyph glyph-name="uni9A8C" unicode="&#x9a8c;" d="M17 190 L83 190 L73 89 L90 89 L87 11 Q87 -19 56 -18 Q52 -18 42 -17 Q33 -17 30 -17 L30 -12 Q33 -12 42 -12 Q52 -13 56 -13 Q82 -15 82 11 L85 84 L22 84 L29 168 L34 168 L27 89 L68 89 L78 185 L17 185 L17 190 ZM90 110 Q143 152 171 208 L175 206 Q174 202 171 197 Q197 148 246 112 L243 109 Q196 142 168 192 Q142 146 93 106 L90 110 ZM97 -5 L188 -5 Q195 10 210 52 Q219 74 222 83 L226 81 Q224 75 219 61 Q202 13 194 -5 L240 -5 L240 -10 L97 -10 L97 -5 ZM122 117 L215 117 L215 112 L122 112 L122 117 ZM110 80 L115 82 L138 14 L133 13 L110 80 ZM156 87 L161 89 L178 26 L173 25 L156 87 ZM10 41 L71 48 L72 43 L11 36 L10 41 Z" /></font>
</defs>
</svg>
