<?xml version="1.0" standalone="no"?>
<!DOCTYPE svg PUBLIC "-//W3C//DTD SVG 1.1//EN" "http://www.w3.org/Graphics/SVG/1.1/DTD/svg11.dtd" >
<svg xmlns="http://www.w3.org/2000/svg">
<metadata>
Created by FontForge 20120731 at Thu Mar 23 14:57:01 2017
 By admin
</metadata>
<defs>
<font id="iconfont" horiz-adv-x="1024" >
  <font-face 
    font-family="iconfont"
    font-weight="500"
    font-stretch="normal"
    units-per-em="1024"
    panose-1="2 0 6 3 0 0 0 0 0 0"
    ascent="896"
    descent="-128"
    x-height="792"
    bbox="31 -56 993 824"
    underline-thickness="0"
    underline-position="0"
    unicode-range="U+0078-E6A8"
  />
<missing-glyph 
 />
    <glyph glyph-name=".notdef" 
 />
    <glyph glyph-name=".notdef" 
 />
    <glyph glyph-name=".null" horiz-adv-x="0" 
 />
    <glyph glyph-name="nonmarkingreturn" horiz-adv-x="341" 
 />
    <glyph glyph-name="x" unicode="x" horiz-adv-x="1001" 
d="M281 543q-27 -1 -53 -1h-83q-18 0 -36.5 -6t-32.5 -18.5t-23 -32t-9 -45.5v-76h912v41q0 16 -0.5 30t-0.5 18q0 13 -5 29t-17 29.5t-31.5 22.5t-49.5 9h-133v-97h-438v97zM955 310v-52q0 -23 0.5 -52t0.5 -58t-10.5 -47.5t-26 -30t-33 -16t-31.5 -4.5q-14 -1 -29.5 -0.5
t-29.5 0.5h-32l-45 128h-439l-44 -128h-29h-34q-20 0 -45 1q-25 0 -41 9.5t-25.5 23t-13.5 29.5t-4 30v167h911zM163 247q-12 0 -21 -8.5t-9 -21.5t9 -21.5t21 -8.5q13 0 22 8.5t9 21.5t-9 21.5t-22 8.5zM316 123q-8 -26 -14 -48q-5 -19 -10.5 -37t-7.5 -25t-3 -15t1 -14.5
t9.5 -10.5t21.5 -4h37h67h81h80h64h36q23 0 34 12t2 38q-5 13 -9.5 30.5t-9.5 34.5q-5 19 -11 39h-368zM336 498v228q0 11 2.5 23t10 21.5t20.5 15.5t34 6h188q31 0 51.5 -14.5t20.5 -52.5v-227h-327z" />
    <glyph glyph-name="mj16shangla" unicode="&#xe669;" 
d="M31 624h160l320 -321l320 321h160l-480 -481z" />
    <glyph glyph-name="yunshujuku" unicode="&#xe689;" 
d="M512 280q-121 0 -219 24t-154 66.5t-56 94.5h46q0 -25 28.5 -49.5t77.5 -44.5t122 -32.5t155 -12.5t155 12.5t122 32.5t77.5 44.5t28.5 49.5h46q0 -52 -56 -94.5t-154 -66.5t-219 -24zM512 118q-121 0 -219 24t-154 66.5t-56 94.5h46q0 -25 28.5 -50t77.5 -45t122 -32.5
t155 -12.5t155 12.5t122 32.5t77.5 45t28.5 50h46q0 -52 -56 -94.5t-154 -66.5t-219 -24zM512 -45q-121 0 -219 24t-154 66.5t-56 94.5h46q0 -24 28.5 -49t77.5 -45t122 -32.5t155 -12.5t155 12.5t122 32.5t77.5 45t28.5 49h46q0 -52 -56 -94.5t-154 -66.5t-219 -24z
M512 442q-121 0 -219 24.5t-154 67t-56 94.5t56 94.5t154 66.5t219 24t219 -24t154 -66.5t56 -94.5t-56 -94.5t-154 -67t-219 -24.5zM512 767q-82 0 -155 -12.5t-122 -32.5t-77.5 -45t-28.5 -49.5t28.5 -49.5t77.5 -45t122 -32.5t155 -12.5t155 12.5t122 32.5t77.5 45
t28.5 49.5t-28.5 49.5t-77.5 45t-122 32.5t-155 12.5zM129 124h-46v504h46v-504zM941 136h-46v492h46v-492zM795 147l51 26v-77l-51 -26v77z" />
    <glyph glyph-name="siyouwangluo" unicode="&#xe68a;" 
d="M935 42h-348v272h348v-272zM631 85h260v186h-260v-186zM898 271h-274v92q0 57 40.5 97t97 40t96.5 -40t40 -97v-92zM668 315h187v48q-1 38 -28 65.5t-65.5 27.5t-66 -27.5t-27.5 -65.5v-48zM544 68q-30 -8 -61 -10v122q29 2 61 6v45q-33 -4 -61 -5v136h97v1q0 22 6 43
h-103v136q60 -3 120 -16q6 -29 10 -59q17 23 40 40q-1 1 -1 3.5t-1 4.5q2 -1 4.5 -1.5t3.5 -1.5q28 20 62 27q-40 15 -81 25q-14 59 -38 116q22 -10 42 -24q64 -43 102 -113q2 0 7 0.5t8 0.5q18 0 36 -3q-44 94 -128 151q-39 27 -100 45.5t-108 18.5v0q-101 0 -187 -50
t-135.5 -135.5t-49.5 -186.5t49.5 -186.5t135.5 -135.5t187 -50q42 0 83 10v46zM483 710q31 -2 62 -10q26 -53 46 -125q-54 10 -108 13v122zM319 679q-23 -54 -37 -112q-60 -14 -116 -40q21 43 65.5 87.5t87.5 64.5zM144 468q60 32 127 51q-11 -56 -14 -113h-123q2 31 10 62
v0zM134 362h123q1 -56 11 -112q-65 19 -124 50q-8 31 -10 62v0zM166 240q55 -24 112 -39q15 -57 39 -112q-42 21 -86 65t-65 86v0zM439 57q-32 2 -62 10q-32 59 -50 123q55 -9 112 -10v-123zM439 225q-63 1 -124 13q-13 61 -13 124h137v-137zM439 406h-137q4 63 17 125
q59 11 120 12v-137zM439 588q-55 -1 -108 -10q20 70 46 123q30 8 62 10v-123z" />
    <glyph glyph-name="fuzaijunheng" unicode="&#xe68b;" 
d="M759 515h-138v199h138v-199zM663 557h54v115h-54v-115zM91 637h487v-42h-487v42zM637 637h102v-42h-102v42zM803 637h130v-42h-130v42zM759 515h-138v199h138v-199zM663 557h54v115h-54v-115zM91 637h487v-42h-487v42zM637 637h102v-42h-102v42zM803 637h130v-42h-130v42
zM403 283h-138v200h138v-200zM307 325h54v115h-54v-115zM446 405h487v-42h-487v42zM285 405h102v-42h-102v42zM91 405h130v-42h-130v42zM759 54h-138v199h138v-199zM663 96h54v115h-54v-115zM91 175h487v-42h-487v42zM637 175h102v-42h-102v42zM803 175h130v-42h-130v42z
" />
    <glyph glyph-name="yunhuancun" unicode="&#xe68c;" 
d="M761 80h-474q-79 2 -134.5 60.5t-55.5 139.5q0 75 47.5 131t118.5 67q18 91 88.5 150.5t160.5 59.5q102 0 175.5 -72.5t78.5 -177.5q67 -5 114 -56.5t47 -122.5q0 -66 -41.5 -116t-103.5 -61v-2h-21zM512 646q-79 0 -139 -54.5t-71 -135.5l-2 -17l-18 -1
q-60 -4 -101.5 -49.5t-41.5 -108.5q0 -64 43.5 -110.5t105.5 -47.5h469h3q52 3 88.5 42.5t36.5 94.5q0 57 -39 97t-93 40l-30 -1l1 31q0 91 -62 155.5t-150 64.5zM613 371q-11 34 -43.5 57.5t-67.5 23.5q-27 0 -56 -16.5t-43 -39.5l-36 22q22 36 57.5 56t77.5 20v0
q48 0 92 -32t59 -78zM506 183v0q-48 0 -92 32t-58 78l40 13q10 -34 42.5 -57.5t67.5 -23.5q27 0 56.5 16.5t43.5 39.5l36 -22q-22 -36 -58 -56t-78 -20zM658 303l-128 65l194 63zM639 359h1v1zM286 244l65 128l128 -66zM369 315v0h1h-1z" />
    <glyph glyph-name="duixiangcunchu" unicode="&#xe68d;" 
d="M864 -37h-598v90l-106 -1v753h704v-842zM308 5h514v758h-620v-668h106v-90zM698 -13h-43v117h43v-117zM622 -13h-42v117h42v-117zM547 -13h-42v117h42v-117zM472 -13h-42v117h42v-117zM397 -13h-43v117h43v-117zM774 -13h-42v117h42v-117zM667 260h-8v2q-17 -2 -107 -2
h-211q-16 0 -32.5 18.5t-16.5 60.5q0 40 25.5 70.5t62.5 36.5q9 28 27 51q42 52 107 52q45 0 82 -28t51 -73q5 -12 7 -46q28 -6 48 -32t20 -53t-18.5 -42t-36.5 -15zM398 405q-27 0 -45.5 -19.5t-18.5 -46.5q0 -32 11 -38l207 1h86v0h29q10 4 13 15q0 14 -13 29.5t-28 15.5
l-28 -2l1 22q0 39 -4 48q-10 35 -36 56t-58 21q-45 0 -74 -37q-17 -21 -22 -47l-2 -18h-18z" />
    <glyph glyph-name="yunyingpan" unicode="&#xe68e;" 
d="M623 85h42v-43h-42v43zM707 85h42v-43h-42v43zM791 85h42v-43h-42v43zM922 -44h-820v212h820v-212zM146 -1h732v126h-732v-126zM878 144l-65 625h-602l-65 -625l-44 5l70 663h680l70 -663zM678 271l-372 1q-23 0 -46 30t-23 85v0q0 46 31.5 87.5t76.5 53.5q19 48 69 81.5
t101 33.5q69 0 122.5 -48t61.5 -116q33 -13 56 -46.5t23 -68.5v0q0 -32 -19 -54.5t-40.5 -30.5t-40.5 -8zM308 315h373q10 1 20 4.5t22 15t12 29.5v0q0 26 -18 48.5t-44 28.5l-16 4v17q-2 58 -43 98t-99 40q-42 0 -81 -28.5t-53 -68.5l-4 -12l-12 -2q-37 -7 -60.5 -35.5
t-23.5 -66.5q0 -22 5.5 -39t11 -24t10.5 -9z" />
    <glyph glyph-name="vpn" unicode="&#xe68f;" 
d="M923 -44h-822v317h822v-317zM145 0h734v229h-734v-229zM880 248l-66 527h-604l-66 -527l-43 22l70 549h682l70 -549zM264 614l58 -171h1l57 171h38l-75 -210h-42l-74 210h37zM515 614q38 0 57 -16t19 -49q0 -65 -77 -65h-52v-80h-34v210h87zM462 514h50q23 0 34 8
q10 8 10 27t-11 27q-10 8 -33 8h-50v-70zM643 614l104 -152h1v152h35v-210h-34l-105 153h-1v-153h-34v210h34zM224 162h44v-102h-44v102zM307 162h44v-102h-44v102z" />
    <glyph glyph-name="cdn" unicode="&#xe690;" 
d="M447 41q-94 0 -173 46t-125 125t-46 172t46 172t125 125.5t173 46.5q113 0 205.5 -69.5t123.5 -178.5l-40 -12q-28 96 -108.5 157t-180.5 61q-125 0 -213.5 -88.5t-88.5 -213.5t88.5 -213.5t213.5 -88.5v0q51 0 99 17l13 -40q-54 -18 -112 -18v0zM921 56h-332v21
q0 71 30 128.5t78 81.5q-9 9 -15 25t-6 29q0 32 23 55.5t56 23.5t56 -23.5t23 -55.5q0 -13 -6 -29t-15 -25q48 -24 78 -81.5t30 -128.5v-21zM631 98h247q-5 68 -40.5 115t-83 47t-82.5 -47t-41 -115zM755 378v0q-16 0 -26.5 -11t-10.5 -26.5t10.5 -26.5t26 -11t26.5 11
t11 26v1q0 15 -11 26t-26 11v0zM325 425l-41 2q7 130 53.5 214t110.5 84q45 0 83 -44t60 -123l-40 -11q-17 62 -45.5 99.5t-57.5 37.5q-45 0 -81 -76t-42 -183zM448 41q-61 0 -106.5 78.5t-56.5 202.5l42 4q8 -102 43.5 -172.5t77.5 -70.5q29 0 57.5 37.5t47.5 108.5t19 156
q0 35 -4 68l42 4q3 -36 3 -72q0 -95 -21.5 -174t-60 -124.5t-83.5 -45.5zM329 86l-38 17q29 64 70 122.5t80 99t84 77t78.5 57.5t68 39t47 23.5t21.5 8.5l14 -39l-17.5 -7.5t-43.5 -21.5t-64.5 -37t-75 -55t-81 -74t-76.5 -94.5t-67 -115.5zM463 468q-169 0 -311 52l15 40
q168 -63 366 -48l3 -41q-35 -3 -73 -3zM626 486l-10 40q57 14 104 33h1l16 -38q-53 -21 -111 -35zM633 450h-109v109h109v-109zM566 492h26v25h-26v-25zM356 318h-109v109h109v-109zM289 360h25v26h-25v-26z" />
    <glyph glyph-name="rongqiyun" unicode="&#xe691;" 
d="M292 57q-88 0 -150 62.5t-62 149.5q0 83 56.5 144t137.5 68q19 97 95.5 160.5t175.5 63.5q86 0 156 -48t101 -129l-41 -16q-27 68 -85.5 108t-130.5 40q-87 0 -153 -58t-77 -145l-2 -20h-20h-1q-69 0 -118 -49t-49 -118v-1q0 -69 48.5 -118.5t117.5 -49.5l154 5l1 -44z
M513 240l-44 10l52 240h383l46 -241l-43 -8l-40 205h-311zM951 60h-481v196h145l4 -18q6 -34 31.5 -56t59.5 -22t60 22t32 56l3 18h146v-196zM514 104h392v108h-65q-12 -40 -50.5 -68t-80 -28t-80 28t-51.5 68h-65v-108z" />
    <glyph glyph-name="yunzhuji" unicode="&#xe692;" 
d="M939 73h-483v379l71 113h357l55 -119v-373zM499 116h397v325l-39 81h-306l-52 -83v-323zM810 380h43v-42h-43v42zM810 206h43v-42h-43v42zM427 118h-180q-26 0 -51.5 7t-51.5 22.5t-42.5 46.5t-16.5 72q0 79 50 139.5t126 74.5q22 89 102 152t171 63q41 0 92.5 -18
t83.5 -43q15 -13 29 -27l-32 -30q-29 31 -79.5 53t-93.5 22q-81 0 -150 -57t-84 -138l-2 -15l-16 -2q-66 -8 -110 -58t-44 -116q0 -28 11 -49t25 -31t33 -16.5t29.5 -7.5t20.5 -1h180v-43zM478 467h440v-43h-440v43zM478 292h440v-44h-440v44z" />
    <glyph glyph-name="mj16shangla-copy" unicode="&#xe6a7;" 
d="M993 144h-160l-320 321l-320 -321h-160l480 481z" />
    <glyph glyph-name="daohang-" unicode="&#xe693;" 
d="M858 456q0 95 -46 175.5t-126 127.5t-174 47t-174 -47t-126 -127.5t-46 -175.5v0q0 -62 32 -136.5t77 -117.5h-1l238 -240l238 240h-1q45 43 77 117.5t32 136.5v0zM512 317q-57 0 -97.5 41t-40.5 98.5t40.5 98t97.5 40.5t97.5 -40.5t40.5 -98t-40.5 -98.5t-97.5 -41z" />
    <glyph glyph-name="anquanzixun" unicode="&#xe694;" 
d="M495 -20q-81 0 -154.5 30.5t-130.5 88t-87.5 131t-30.5 154.5t30.5 154.5t87.5 131t130.5 88t154 30.5t154 -30.5t130.5 -88t87.5 -131t30.5 -154.5h-43q0 72 -27 138t-78 117t-116.5 78.5t-137.5 27.5t-138 -27.5t-116.5 -78.5t-78 -117t-27.5 -138t27.5 -138t78 -117
t116.5 -78.5t138 -27.5h1q34 0 79.5 10.5t76.5 25.5l19 -38q-35 -17 -86 -29t-89 -12h-1zM876 298v0q-23 0 -39.5 16.5t-16.5 39.5t16.5 39.5t39.5 16.5t39.5 -16.5t16.5 -39.5t-16.5 -39.5t-39.5 -16.5zM876 367v0q-6 0 -10 -4t-4 -9.5t4 -9.5t9.5 -4t9.5 4t4 10v0
q0 5 -4 9t-9 4v0zM497 117l-11 8q-65 42 -97 69q-104 85 -104 253q0 48 11 83l6 20l19 -6q54 -13 91 -13q35 0 77 17l8 3l9 -3q42 -17 78.5 -17t90.5 13l19 6l6 -20q11 -34 11 -83q0 -172 -98 -253q-33 -28 -105 -70zM332 498q-4 -25 -4 -50v-1q0 -147 88 -220
q25 -21 82 -59q63 38 88 59q82 68 82 220v1q0 25 -4 50q-46 -9 -80 -9q-39 0 -86 16q-46 -16 -86 -16q-34 0 -80 9zM477 442h43v-214h-43v214zM392 389h213v-43h-213v43z" />
    <glyph glyph-name="jingxiang" unicode="&#xe695;" 
d="M89 -38v844l364 -129v-586zM132 746v-724l278 100v524zM935 -38l-364 129v586l364 129v-844zM614 122l278 -100v724l-278 -100v-524zM491 760h42v-22h-42v22zM533 62h-42v42h42v-42zM533 147h-42v42h42v-42zM533 231h-42v43h42v-43zM533 316h-42v42h42v-42zM533 400h-42
v43h42v-43zM533 485h-42v42h42v-42zM533 569h-42v43h42v-43zM533 654h-42v42h42v-42zM491 20h42v-21h-42v21z" />
    <glyph glyph-name="anquanzu" unicode="&#xe696;" 
d="M542 220q-11 24 -30 24q-17 0 -28 -20q-2 0 -8 -1q4 17 14 28t22 11q13 0 23 -12t13 -31zM512 17q-32 0 -54.5 22.5t-22.5 54.5v47q-16 14 -27 38.5t-11 45.5v0q1 47 34.5 80t80.5 33t80.5 -33t34.5 -80v0q0 -21 -11 -45.5t-27 -38.5v-47q0 -32 -22.5 -54.5t-54.5 -22.5z
M512 298q-30 -1 -51 -22t-22 -51q0 -15 9 -32t21 -26l8 -6v-67q0 -14 10 -24.5t25 -10.5t25 10.5t10 24.5v67l8 6q13 9 21.5 26t8.5 32q0 30 -21.5 51.5t-51.5 21.5v0zM722 -39h-420q-38 0 -65 26.5t-27 63.5v276q0 31 20 55.5t51 31.5v165q0 95 67.5 161.5t163.5 66.5
q95 0 163 -66t68 -159q1 -25 -14 -42q-16 -16 -41.5 -16.5t-40.5 15.5q-16 16 -16 38v1q0 50 -35 84t-84 34t-84 -34t-35 -83v-163h329q38 0 65 -26t27 -63v-276q0 -37 -27 -63.5t-65 -26.5zM302 375q-21 0 -35.5 -14.5t-14.5 -33.5v-276q0 -20 14.5 -34t35.5 -14h420
q21 0 35.5 14t14.5 34v276q0 19 -14.5 33t-35.5 14h-371v205q0 66 47 112.5t114 46.5q66 0 113 -46t48 -110v-5v0q0 -5 3 -8q4 -4 11 -4t12 5q3 2 3 6l-1 1v4q0 76 -55.5 130t-133.5 54t-133.5 -54.5t-55.5 -131.5v-204h-21z" />
    <glyph glyph-name="anquanshequ" unicode="&#xe697;" 
d="M839 -36h-654v344h44v-300h566v300h44v-344zM897 337l-385 403l-385 -403l-32 31l417 436l417 -436zM513 116h-2q-58 7 -101 56q-65 75 -54 223l1 18l19 2q72 7 121 39l12 9l13 -9q43 -28 105 -37l42 -6l-166 -176l-83 81l31 32l51 -50l79 84q-38 9 -71 28
q-48 -28 -111 -37q-5 -115 45 -172q29 -34 69 -41q26 5 47 20q55 39 66 132l44 -5q-13 -112 -84 -163q-34 -24 -70 -28h-3z" />
    <glyph glyph-name="fanghuoqiang" unicode="&#xe698;" 
d="M512 -36l-7 3q-27 9 -55.5 21t-71 35.5t-78 51t-71 68.5t-57.5 88l38 18q24 -51 64 -94t86.5 -71.5t81.5 -45.5t70 -29q229 80 303 240l38 -18q-82 -178 -334 -264zM172 230q-10 21 -10 44v0v473h21q23 0 63.5 2t125.5 14.5t131 35.5l9 5l9 -5q47 -23 132 -35.5
t125 -14.5t63 -2h21v-473v0q0 -23 -10 -43l-37 18q5 12 5 25v432q-203 5 -308 51q-103 -46 -308 -51v-432q0 -13 5 -25zM429 281h-259v159h259v-159zM212 323h174v75h-174v-75zM645 281h-259v159h259v-159zM428 323h175v75h-174zM862 281h-259v159h259v-159zM645 323h175v75
h-175v-75zM429 33h-43v173h259v-170h-42v128h-174v-131zM537 164h-298v42h256v75h-304v42h346v-159zM791 164h-296v159h367v-40l-325 -2v-75h254v-42z" />
    <glyph glyph-name="danxingshensuo" unicode="&#xe699;" 
d="M512 195h-8q-28 2 -56 35q-16 19 -42 63q-19 33 -28 45q-12 15 -22 15q-12 0 -27 -33l-40 19q27 56 66 58q32 0 57 -32q11 -14 32 -50q24 -41 37 -57q16 -19 26 -19q23 -2 34 12q9 13 21 51q11 36 20 51q21 35 58 36q38 0 62 -21q15 -13 32 -44l-38 -21q-14 25 -23 32
q-10 9 -32 10q-14 0 -22 -15q-6 -10 -15 -40q-15 -47 -29 -65q-23 -30 -63 -30zM357 220h-0.5h-0.5q-23 1 -43 44l39 18q3 -6 6 -11q8 10 26 41q14 24 23 37.5t24.5 32.5t33.5 29t38 11q31 2 55 -9q23 -10 38 -31q17 -22 32 -72q11 -35 15 -39q9 1 13 5q6 5 17 25l38 -21
q-15 -27 -26 -37q-16 -14 -45 -14q-12 0 -20.5 5.5t-15 17t-9.5 20l-9 25.5q-12 43 -25 59q-8 11 -21 17q-14 7 -34 6q-16 -2 -32.5 -17.5t-26 -30t-26.5 -41.5q-20 -35 -30 -47q-17 -23 -34 -23zM764 87h-479q-80 2 -136.5 59.5t-56.5 136.5q0 73 48 128t120 65
q18 89 89.5 147t162.5 58q103 0 177.5 -71t79.5 -172q68 -6 115.5 -56t47.5 -119q0 -65 -42 -113.5t-105 -59.5v-2zM512 637q-80 0 -140.5 -52.5t-71.5 -130.5l-2 -18l-18 -1q-61 -4 -102.5 -48t-41.5 -104q0 -61 43.5 -106t105.5 -46h475h3q52 3 88.5 41t36.5 91
q0 54 -39 93t-94 39l-30 -2l1 31q0 88 -63 150.5t-151 62.5z" />
    <glyph glyph-name="luyouqi" unicode="&#xe69a;" 
d="M932 79h-840v253h840v-253zM136 122h752v167h-752v-167zM134 314l-40 15l61 157h58v-43h-29zM890 317l-50 126h-30v43h59l61 -153zM725 443h-426v43h426v-43zM236 689h43v-378h-43v378zM752 689h43v-378h-43v378zM702 239h52v-52h-52v52zM616 239h52v-52h-52v52zM840 239
h-51v-52h51v52z" />
    <glyph glyph-name="shipinzhibo" unicode="&#xe69b;" 
d="M811 108h-598q-50 0 -85.5 36t-35.5 86v443q0 50 35.5 86t85.5 36h600q49 -1 84 -36t35 -84v-3v-442q0 -50 -35.5 -86t-85.5 -36zM213 750q-31 0 -53.5 -23t-22.5 -54v-443q0 -31 22.5 -54t53.5 -23h598q31 0 53.5 23t22.5 54v443v2q0 13 -6.5 28t-14.5 24
q-9 10 -24.5 16.5t-28.5 6.5h-600zM363 18h349v-45h-349v45zM447 299l171 152l-171 154v-306z" />
    <glyph glyph-name="shouquanguanli" unicode="&#xe69c;" 
d="M824 -27q-160 227 -324 219q-49 -2 -98.5 -26t-82 -52.5t-63 -64t-40.5 -51t-15 -23.5l-36 21q7 11 18 28t44.5 56t69.5 69.5t90.5 56t110.5 28.5q187 9 360 -237zM512 192q-80 0 -136.5 51t-56.5 122t56.5 122t136.5 51t136.5 -51t56.5 -122t-56.5 -122t-136.5 -51z
M512 496q-62 0 -106.5 -38.5t-44.5 -92.5t44.5 -92.5t106.5 -38.5t106.5 38.5t44.5 92.5t-44.5 92.5t-106.5 38.5zM768 581h-513v114h513v-114zM297 622h430v31h-430v-31zM895 -36h-766v840h766v-840zM171 6h682v756h-682v-756z" />
    <glyph glyph-name="shujuqianyi" unicode="&#xe69d;" 
d="M484 -10h-310q-34 0 -58 24t-24 58v624q0 34 24 58t58 24h621q33 0 57 -24t24 -58v-312q0 -10 -6.5 -16.5t-16 -6.5t-16.5 6.5t-7 16.5v312v0q0 15 -10.5 25.5t-24.5 10.5h-621q-15 0 -25 -10.5t-10 -25.5v0v-624v0q0 -14 10 -24.5t25 -11.5h310q10 0 16.5 -6.5t6.5 -16
t-6.5 -16.5t-16.5 -7v0zM853 504h-728h-1q-9 0 -16 6.5t-7 16t7 16.5t16 7h1h728h1q9 0 16 -7t7 -16.5t-7 -16t-16 -6.5h-1zM464 274h-348v0q-10 0 -16.5 6.5t-6.5 16t6.5 16.5t16.5 7v0h348h1q9 0 16 -7t7 -16.5t-7 -16t-16 -6.5h-1zM302 147h-78q-9 0 -15.5 7t-6.5 16
t6.5 16t15.5 7h78q10 0 16.5 -7t6.5 -16t-6.5 -16t-16.5 -7v0zM302 391h-78q-9 0 -15.5 7t-6.5 16t6.5 16t15.5 7h78q10 0 16.5 -7t6.5 -16t-6.5 -16t-16.5 -7v0zM302 617h-78q-9 0 -15.5 7t-6.5 16.5t6.5 16t15.5 6.5h78q10 0 16.5 -6.5t6.5 -16t-6.5 -16.5t-16.5 -7v0z
M904 199h-364v0q-10 0 -16.5 6.5t-6.5 16t6.5 16.5t16.5 7v0h310l-62 66q-6 7 -6 16q0 10 6.5 16.5t16.5 6.5t17 -7l98 -105q7 -7 7 -16q0 -10 -7 -16.5t-16 -6.5v0v0zM623 -10v0q-10 0 -16 7l-99 106q-6 6 -6 15q0 10 6.5 17t16.5 7h383h1q9 0 16 -7t7 -16.5t-7 -16.5
t-16 -7h-1h-330l62 -66q7 -7 7 -16t-7 -16t-17 -7z" />
    <glyph glyph-name="yuming" unicode="&#xe69e;" 
d="M490 801h46v-290h-46v290zM490 257h46v-290h-46v290zM513 537q-120 0 -211.5 28.5t-121.5 75.5l39 25q20 -33 101.5 -58t192.5 -25q112 0 195 26t101 60l40 -20q-24 -50 -118 -81t-218 -31zM220 88l-41 20q25 50 119 81t218 31q119 0 211 -28.5t121 -75.5l-38 -25
q-21 33 -102 58t-192 25q-113 0 -196 -26t-100 -60zM183 284l36 170l36 -170l33 2l57 187h-36l-36 -170l-36 170h-36l-36 -170l-37 170h-36l55 -189h36zM525 473h-36l-36 -170l-36 170h-36l54 -189h36l36 170l36 -170l33 2l57 187h-36l-36 -170zM849 303l-36 170h-36
l-36 -170l-36 170h-36l54 -189h36l36 170l36 -170l34 2l56 187h-36zM715 507q-22 117 -78.5 191t-124 74t-124 -74t-78.5 -191l-45 8q26 136 94 219.5t153.5 83.5t154 -83.5t93.5 -219.5zM512.5 -50q-85.5 0 -153.5 83.5t-94 219.5l46 8q21 -117 77.5 -191.5t124 -74.5
t124 74.5t78.5 191.5l45 -8q-25 -136 -93.5 -219.5t-154 -83.5zM888 504q-39 123 -142.5 198.5t-232.5 75.5t-232.5 -75.5t-142.5 -198.5l-44 14q44 137 159.5 221.5t259.5 84.5t259.5 -84.5t159.5 -221.5zM513 -56q-144 0 -259.5 84.5t-159.5 221.5l44 14
q39 -123 142.5 -198.5t232.5 -75.5t232.5 75.5t142.5 198.5l44 -14q-44 -137 -159.5 -221.5t-259.5 -84.5z" />
    <glyph glyph-name="yunyingpankuaizhao" unicode="&#xe69f;" 
d="M548 -18h-456v205h455v-43h-412v-120h413v-42zM135 163l-42 5l66 636h654l53 -521l-43 -4l-49 482h-576zM646 284l-358 1q-22 0 -44 29t-22 82v0q0 44 30 84t73 51q19 46 67 78t97 32q66 0 117.5 -46t59.5 -111q31 -12 53.5 -44.5t22.5 -65.5v-1q0 -30 -18.5 -51.5
t-39.5 -29.5t-38 -8zM290 327h358q10 1 19.5 4t20.5 14.5t11 27.5v1q0 24 -17 45.5t-41 27.5l-16 4l-1 16q-1 55 -40.5 93.5t-94.5 38.5q-40 0 -77.5 -27t-50.5 -66l-4 -11l-12 -3q-33 -6 -56.5 -34t-23.5 -62v0q0 -21 5 -37.5t10.5 -22.5t9.5 -9zM745.5 13
q-39.5 0 -67 27.5t-27.5 65.5t27.5 65t67 27t67.5 -27t28 -65t-28 -65.5t-67.5 -27.5zM746 156q-22 0 -37.5 -14.5t-15.5 -35.5t15.5 -35.5t37.5 -14.5t37 14.5t15 35.5t-15 35.5t-37 14.5zM877 -36h-264q-20 0 -36.5 15.5t-16.5 38.5v156q0 24 18 39t37 15h33l24 39h148
l24 -39h33q24 0 39.5 -17.5t15.5 -36.5v-156q0 -22 -17.5 -38t-37.5 -16zM615 185q-3 0 -7.5 -3t-4.5 -8v-156q0 -4 3.5 -7.5t6.5 -3.5h264q3 0 7.5 4t4.5 7v156q0 1 -1 3.5t-4 5t-7 2.5h-57l-24 39h-101l-24 -39h-56z" />
    <glyph glyph-name="yunzhujisaomiao" unicode="&#xe6a0;" 
d="M275 100h-21q-25 0 -51 7t-52 23.5t-42.5 48.5t-16.5 75q0 82 50 145t126 78q23 99 99 162.5t174 63.5q76 0 142 -40.5t103 -110.5l-38 -20q-31 59 -87 93.5t-120 34.5q-86 0 -152 -58t-82 -147l-3 -15l-15 -3q-66 -8 -110 -60.5t-44 -122.5q0 -30 11 -52.5t25 -33.5
t33 -17t29.5 -7.5t20.5 -1.5v-13h21v-29zM452 100h-219v29h21v13h198v-42zM859 159h-308v175l51 60h206l51 -60v-175zM593 201h224v117l-29 33h-166l-29 -33v-117zM521 364h-43v124h127v-43h-84v-81zM932 363h-43v83h-81v43h124v-126zM932 66h-127v43h84v81h43v-124zM602 65
h-124v126h43v-83h81v-43zM572 326h266v-42h-266v42z" />
    <glyph glyph-name="sshmiyue" unicode="&#xe6a1;" 
d="M712 615q11 0 19 -8t8 -19t-8 -19t-19 -8t-19 8t-8 19t8 19t19 8zM518 443q4 -4 4 -10q0 -7 -5 -12l-281 -279q-5 -4 -11 -4t-10 5t-4 11q0 7 4 11l282 279q4 4 10 4q7 0 11 -5zM144 -30q-19 0 -32.5 13.5t-13.5 32.5v74q0 15 6.5 31t17.5 27l331 332q-12 37 -12 76
q0 100 71 171t172 71q41 0 91.5 -20.5t79.5 -50.5q71 -71 71 -171.5t-71 -171.5q-29 -29 -79.5 -50t-91.5 -21q-39 0 -77 12l-89 -89q-10 -11 -26.5 -17.5t-30.5 -6.5h-72l-3 -75q0 -19 -13.5 -32.5t-32.5 -13.5h-72l-3 -75q0 -19 -13.5 -32.5t-32.5 -13.5h-75v0zM684 755
q-83 0 -141.5 -58.5t-58.5 -140.5q0 -39 15 -75l7 -17l-16 -9l-338 -338q-11 -11 -11 -27v-74l78 -3l3 75q0 19 13.5 32.5t32.5 13.5h72l3 75q0 19 13.5 32.5t32.5 13.5h72q15 0 26 11l95 96l10 15l17 -6q36 -15 75 -15q34 0 75 17.5t65 41.5q59 58 59 140.5t-59 141.5
q-24 24 -65 41t-75 17v0zM715 484q-44 0 -75.5 31.5t-31.5 76.5q0 18 9 40.5t22 35.5q30 30 76 30t76 -30q13 -13 22.5 -35.5t9.5 -40.5q0 -45 -31.5 -76.5t-76.5 -31.5v0zM715 656v0q-27 0 -45.5 -19t-18.5 -45.5t18.5 -45t45.5 -18.5v0q27 0 45.5 18.5t18.5 45t-18.5 45.5
t-45.5 19v0z" />
    <glyph glyph-name="ddosjichufanghu" unicode="&#xe6a2;" 
d="M513 8q-118 0 -214 65.5t-138 175.5l39 15q38 -98 123 -156t190 -58q116 0 206 70.5t118 181.5q-15 7 -25.5 24.5t-10.5 33.5q0 28 19 47t46 19t46 -19t19 -47q0 -22 -15 -40.5t-37 -23.5q-30 -127 -132 -207.5t-234 -80.5zM866 383q-9 0 -16 -6.5t-7 -16t7 -16.5
t16.5 -7t16 7t6.5 16.5t-6.5 16t-16.5 6.5v0zM589 166l-76 38l-76 -38l-19 38l91 45q-31 1 -64 20.5t-49 46.5l6 -101l-42 -3l-5 83l-71 46l22 36l88 -56q-16 29 -16 63t16 64l-85 -56l-24 35l71 47l6 85l42 -3l-7 -102q16 26 49 45t63 20l-91 45l18 38l77 -38l76 38l19 -38
l-91 -45q30 -1 63 -20.5t49 -46.5l-6 101l42 3l5 -83l72 -46l-23 -35l-87 55q16 -29 16 -63t-16 -64l85 56l23 -35l-71 -47l-5 -84l-42 2l6 102q-16 -26 -48.5 -45t-62.5 -20l91 -45zM512.5 477q-38.5 0 -65.5 -27.5t-27 -65.5t27 -65.5t65.5 -27.5t66 27.5t27.5 65.5
t-27.5 65.5t-66 27.5zM512.5 312q-29.5 0 -50.5 21t-21 51t21 51t51 21t51 -21t21 -51t-21.5 -51t-51 -21zM513 414q-12 0 -21 -9t-9 -21t9 -21t21 -9t20.5 9t8.5 21t-8.5 21t-20.5 9v0v0zM158 319v0q-27 0 -46.5 19t-19.5 46q0 21 14.5 39.5t34.5 23.5q23 135 128.5 224
t243.5 89v0q112 0 216.5 -75t140.5 -181l-40 -13q-32 94 -125 160.5t-192 66.5v0q-122 0 -215 -77.5t-115 -196.5q17 -7 28.5 -24.5t11.5 -35.5q0 -27 -19 -46t-46 -19v0zM158 407q-10 0 -16.5 -7t-6.5 -16.5t7 -16t16.5 -6.5t16 6.5t6.5 16.5t-6.5 16.5t-16.5 6.5v0z" />
    <glyph glyph-name="ziwang" unicode="&#xe6a3;" 
d="M921 116l-40 12q25 90 -23 212l39 15q54 -135 24 -239zM806 440q-44 70 -106 132q-107 107 -229.5 157t-214.5 24l-12 40q103 30 237 -23t249 -168q66 -65 112 -140zM704 -36q-97 0 -206 53.5t-204 148.5q-66 66 -112 140l36 22q19 -30 50 -68.5t56 -63.5
q107 -107 229.5 -157t214.5 -24l12 -40q-35 -11 -76 -11zM126 414q-53 135 -23 238l40 -12q-25 -89 23 -210zM195 608q-39 0 -66 27.5t-27 66t27 65.5t66 27q16 0 35 -8t30.5 -19t19.5 -30.5t8 -35.5q0 -38 -27.5 -65.5t-65.5 -27.5v0zM195 752q-21 0 -36 -15t-15 -36
t15 -35.5t36 -14.5t35.5 14.5t14.5 35.5t-14.5 36t-35.5 15v0v0zM829 -26v0q-38 0 -65.5 27t-27.5 66q0 16 8 35t19 31q27 26 66.5 26t65.5 -26q11 -12 19 -31t8 -35q0 -39 -27 -66t-66 -27v0zM829 117q-21 0 -35.5 -14.5t-14.5 -35.5t14 -36q15 -14 36.5 -14t35.5 14
q15 15 15 36t-15 35.5t-36 14.5v0v0zM103 116q-30 103 23 237t168 249q26 26 66 58.5t71 51.5l23 -35q-29 -19 -67.5 -49.5t-62.5 -55.5q-107 -107 -157 -229.5t-24 -214.5zM557 730l-15 40q135 53 238 23l-12 -40q-89 25 -211 -23zM473 17q-127 -49 -223 -22zM584 50
l-22 36q74 46 138 110q107 107 157 229.5t24 214.5l40 12q30 -103 -23 -237t-168 -249q-68 -68 -146 -116zM829 608v0q-38 0 -65.5 27.5t-27.5 65.5q0 16 8 35.5t19 30.5q27 26 66.5 26t65.5 -26q11 -11 19 -30.5t8 -35.5q0 -38 -27 -65.5t-66 -27.5v0v0zM829 752
q-21 0 -35.5 -15t-14.5 -36t14 -36q15 -14 36.5 -14t35.5 14q15 15 15 36t-15 36t-36 15v0v0zM195 -26q-39 0 -66 27t-27 65.5t27 66t66 27.5q16 0 35 -8t30.5 -19.5t19.5 -30.5t8 -35q0 -39 -27.5 -66t-65.5 -27v0zM195 117q-21 0 -36 -14.5t-15 -35.5t15 -36t36 -15
t35.5 15t14.5 36t-14.5 35.5t-35.5 14.5v0v0zM512 219q-68 0 -116.5 48.5t-48.5 116.5t48.5 116.5t116.5 48.5t116.5 -48.5t48.5 -116.5t-48.5 -116.5t-116.5 -48.5zM512 506v0q-51 0 -86.5 -35.5t-35.5 -86.5t35.5 -86.5t86.5 -35.5t86.5 35.5t35.5 86.5t-35.5 86.5
t-86.5 35.5z" />
    <glyph glyph-name="websaomiao" unicode="&#xe6a4;" 
d="M209 615h593v-43h-593v43zM147 413h738v-43h-738v43zM209 211h336v-43h-336v43zM710 391h-43q0 102 -45.5 191.5t-128.5 150.5l26 35q91 -68 141 -166.5t50 -210.5zM571 11h-65q-103 0 -191 51t-138.5 139t-50.5 191v1q0 52 22 118.5t54 108.5q54 72 133.5 112t170.5 40
q103 0 190.5 -51t138.5 -138.5t51 -190.5h-43q0 90 -44 166.5t-120 122.5t-166 47q-80 -61 -123.5 -149t-43.5 -188q0 -101 45 -190t128 -151zM441 722q-127 -24 -205 -128q-28 -37 -47.5 -96t-19.5 -105v-1q0 -122 77 -215t194 -116q-66 66 -102 151t-36 179t36 179.5
t103 151.5zM186 37q-54 0 -77 32q-47 61 49 195q89 123 251.5 246t305.5 176q154 57 201 -4q37 -49 -19 -147l-37 22q41 72 21 99q-7 9 -24.5 12.5t-50.5 -1.5t-76 -21q-137 -51 -294.5 -170.5t-242.5 -237.5q-27 -37 -41 -68t-14.5 -47.5t5.5 -27.5q16 -22 77 -11l8 -43
q-21 -3 -42 -4zM655 204h-44v92h92v-43h-48v-49zM920 204h-43v49h-49v43h92v-92zM920 -4h-92v43h49v49h43v-92zM703 -4h-92v92h44v-49h48v-43zM633 169h265v-43h-265v43z" />
    <glyph glyph-name="bgpgaofang" unicode="&#xe6a5;" 
d="M512 -36l-7 3q-27 9 -55.5 21t-71 35.5t-78 51t-71 68.5t-57.5 88l37 18q25 -51 65 -94t86.5 -71.5t81.5 -45.5t70 -29q229 80 303 240l38 -18q-82 -178 -334 -264zM172 230q-10 21 -10 44v0v473h21q23 0 63.5 2t125.5 14.5t131 35.5l9 5l9 -5q47 -23 132 -35.5
t125 -14.5t63 -2h21v-473v0q0 -23 -10 -43l-37 18q5 12 5 25v432q-203 5 -308 51q-103 -46 -308 -51v-432q0 -13 5 -25zM429 281h-259v159h259v-159zM212 323h174v75h-174v-75zM645 281h-259v159h259v-159zM429 323h174v75h-174v-75zM862 281h-259v159h259v-159zM645 323
h175v75h-175v-75zM429 33h-43v173h259v-170h-42v128h-174v-131zM537 164h-298v42h256v75h-304v42h346v-159zM791 164h-296v159h367v-40l-325 -2v-75h254v-42zM321 496v174h51q23 0 37 -11t14 -29v-1q0 -14 -8 -25q-9 -11 -23 -15v-1q18 -2 28.5 -13t10.5 -29q0 -22 -16 -36
t-41 -14h-53zM344 650v-54h20q16 0 25.5 7.5t9.5 21.5q0 25 -33 25h-22zM344 576v-60h27q17 0 27 8t10 22q0 30 -41 30h-23zM597 508q-26 -15 -59 -15q-38 0 -61 24t-23 64t25.5 66t65.5 26q28 0 48 -9v-25q-21 13 -50 13q-28 0 -46.5 -19t-18.5 -51q0 -33 17 -51t46 -18
q19 0 33 8v47h-37v19h60v-79zM659 561v-65h-23v174h50q28 0 43.5 -13.5t15.5 -39.5q0 -25 -18 -41t-46 -15h-22zM659 650v-69h20q21 0 31.5 9t10.5 26q0 34 -39 34h-23z" />
    <glyph glyph-name="yunjiankong" unicode="&#xe6a6;" 
d="M932 160h-840v599h840v-599zM136 204h752v512h-752v-512zM865 229h-708v461h708v-461zM201 273h620v374h-620v-374zM734 9h-460l80 182l40 -18l-53 -121h326l-53 121l40 18zM490 597h44v-213h-44v213zM490 358h44v-40h-44v40z" />
    <glyph glyph-name="zizhanghaoguanli" unicode="&#xe6a8;" 
d="M92 74l4 647l784 -5l-1 -292h-43l1 250l-699 4l-3 -561l426 2v-43zM713 47l1 36q-7 2 -13 5l-25 -25l-68 68l25 26q-3 6 -5 13h-36v97h36q2 6 5 13l-25 25l69 69l25 -25q6 3 13 5v36l97 -1l-1 -36q7 -2 13 -5l25 25l67 -69l-25 -25l6 -12h35l-1 -97h-35q-2 -7 -5 -13
l25 -25l-68 -69l-25 25q-6 -3 -13 -5v-35zM694 142l15 -10q14 -9 31 -12l17 -4l-1 -26h12v26l16 4q17 4 31 13l15 9l18 -18l8 8l-18 18l8 15q10 14 13 31l4 17h26v11h-26l-3 17q-4 17 -13 31l-9 14l18 19l-8 8l-18 -19l-14 10q-14 9 -31 13l-16 4v26h-11l-1 -26l-16 -4
q-17 -4 -31 -13l-15 -9l-18 18l-8 -8l18 -18l-9 -15q-9 -14 -13 -31l-4 -17h-26v-12h26l4 -17q3 -16 12 -31l9 -14l-18 -19l8 -8zM762 156v0q-25 0 -43 18t-18 44v0q0 26 18 44t44 18v0v0q25 0 43 -18t18 -43v-1q0 -25 -18 -43.5t-44 -18.5v0zM763 238q-8 0 -14 -6t-6 -14
t6 -14q6 -5 13 -5v0q8 0 14 6t6 14t-6 13q-6 6 -13 6zM510 239l-42 7q1 10 1 19v1q0 38 -26 71t-63 42l-27 6l-27 -6q-40 -9 -65.5 -40.5t-25.5 -72.5v-1q0 -10 1 -19l-42 -7q-2 13 -2 26q0 41 26 83t62 60q-17 24 -17 53q0 38 26.5 64t63.5 26v0h1q37 0 63.5 -26.5
t26.5 -64.5q0 -29 -18 -53q36 -18 61 -59.5t25 -81.5q0 -14 -2 -27v0zM353 509v0q-20 0 -34 -14t-14 -34v0q0 -12 7.5 -24.5t18.5 -17.5l22 -12l23 12q10 5 17.5 17.5t7.5 24.5q0 19 -13.5 33t-33.5 15h-1zM533 514h41v-41h-41v41zM615 514h41v-41h-41v41zM697 514h41v-41
h-41v41z" />
  </font>
</defs>
</svg>
